<?xml version="1.0" standalone="no"?>
<!DOCTYPE svg PUBLIC "-//W3C//DTD SVG 20010904//EN"
 "http://www.w3.org/TR/2001/REC-SVG-20010904/DTD/svg10.dtd">
<svg version="1.0" xmlns="http://www.w3.org/2000/svg"
 width="929.000000pt" height="924.000000pt" viewBox="0 0 929.000000 924.000000"
 preserveAspectRatio="xMidYMid meet">

<g transform="translate(0.000000,924.000000) scale(0.100000,-0.100000)"
fill="#000000" stroke="none">
<path d="M3430 9209 c-47 -4 -112 -13 -145 -19 -75 -14 -468 -170 -555 -220
-36 -20 -112 -63 -170 -95 -133 -74 -183 -108 -244 -165 -58 -53 -152 -174
-201 -259 -27 -46 -56 -76 -118 -123 -45 -34 -144 -111 -221 -171 -160 -125
-176 -129 -214 -59 -20 36 -28 42 -56 42 -42 0 -110 -58 -167 -141 -21 -32
-62 -88 -89 -124 -27 -36 -92 -130 -144 -208 -52 -79 -110 -156 -131 -173 -97
-77 -99 -80 -153 -245 -76 -234 -83 -246 -159 -280 -76 -35 -82 -46 -117 -204
-33 -150 -48 -185 -98 -226 -65 -51 -70 -75 -78 -334 -8 -247 -14 -279 -70
-375 -37 -63 -156 -310 -164 -340 -5 -17 2 -11 20 18 14 23 30 42 34 42 16 0
-11 -59 -42 -92 -27 -29 -29 -36 -23 -77 6 -39 9 -43 16 -24 9 23 71 85 78 77
3 -2 -5 -14 -17 -27 -12 -13 -22 -29 -22 -36 0 -7 -8 -26 -17 -42 -16 -27 -16
-29 3 -50 21 -24 130 -97 187 -125 20 -11 74 -42 120 -71 154 -95 146 -108
-62 -108 -172 0 -167 2 -236 -105 -56 -86 -65 -117 -65 -217 0 -81 -2 -88 -37
-146 -36 -57 -38 -64 -36 -141 3 -142 40 -267 155 -529 47 -108 48 -148 8
-225 -54 -105 -51 -142 25 -318 24 -56 53 -143 64 -195 14 -65 37 -128 75
-204 37 -74 57 -128 61 -165 21 -179 206 -685 366 -1000 153 -303 321 -528
526 -707 201 -177 269 -224 484 -335 199 -104 316 -138 532 -158 116 -11 209
-34 337 -83 297 -113 320 -124 320 -149 0 -5 -9 -30 -21 -55 -25 -54 -16 -87
28 -104 80 -31 372 -65 628 -74 166 -6 183 -8 222 -31 58 -33 133 -32 286 7
66 17 151 31 188 32 57 2 72 -2 101 -23 51 -38 150 -40 249 -6 69 24 90 26
230 26 85 0 172 5 194 11 63 17 154 66 198 105 21 20 54 42 72 50 45 19 230
41 405 49 80 3 169 13 197 21 77 21 153 96 153 149 0 15 -1 15 -16 1 -8 -9
-20 -16 -25 -16 -5 0 -9 -8 -9 -18 0 -37 -51 -59 -64 -27 -3 9 0 15 8 15 7 0
19 7 27 16 19 23 1 30 -94 38 -84 7 -117 -3 -77 -24 12 -6 19 -14 15 -18 -3
-3 -62 -7 -131 -8 -105 -1 -123 1 -113 12 6 8 30 15 53 15 22 1 55 5 71 10 18
5 -16 6 -84 3 -63 -3 -124 -9 -135 -14 -12 -4 -63 -11 -115 -14 -75 -6 -92 -5
-89 6 4 12 129 97 323 221 41 27 75 54 75 62 0 7 -15 24 -32 37 -49 33 -126
98 -185 154 -36 34 -53 58 -55 79 -3 29 -5 30 -68 37 -36 4 -85 10 -110 13
l-45 7 55 -48 c72 -63 210 -205 210 -217 0 -13 -40 3 -98 39 -81 52 -179 81
-259 75 -43 -2 -24 -29 32 -46 53 -17 125 -78 125 -106 0 -60 -113 -129 -210
-129 -58 1 -187 38 -190 55 -1 11 8 13 177 45 135 26 149 31 140 53 -11 28
-273 142 -512 222 -218 73 -546 154 -692 170 -55 7 -62 5 -83 -16 -21 -23 -22
-29 -15 -125 l6 -101 -37 -48 c-72 -94 -66 -151 17 -181 27 -10 49 -21 49 -24
0 -12 -64 -9 -135 6 -55 11 -80 23 -114 52 -38 33 -44 43 -48 88 -5 46 -2 55
24 84 22 25 41 35 73 39 52 7 61 25 23 44 -67 34 -204 27 -286 -14 -30 -16
-62 -20 -165 -22 -129 -2 -150 -7 -206 -52 -19 -14 -19 -16 -3 -50 38 -80 12
-101 -128 -105 -58 -1 -59 -2 -28 -13 45 -17 49 -25 19 -38 -21 -10 -44 -10
-109 0 -45 7 -90 12 -100 12 -15 0 -16 3 -7 14 14 17 5 35 -16 35 -25 0 -74
30 -74 45 0 16 -107 100 -142 111 -12 3 -44 21 -72 39 -28 18 -78 45 -111 61
-33 16 -62 31 -65 34 -3 3 -18 11 -33 18 -15 7 -54 29 -86 50 -68 46 -119 72
-138 72 -8 0 -31 17 -52 38 -50 48 -93 82 -107 82 -18 0 -54 45 -54 67 0 12
35 57 84 108 l84 89 51 -46 c62 -56 299 -199 444 -268 58 -28 157 -68 219 -90
62 -21 145 -52 183 -68 44 -19 102 -34 155 -41 47 -5 119 -15 160 -20 205 -29
330 -31 330 -7 0 6 -61 66 -136 131 -162 142 -173 153 -185 183 -5 12 -16 22
-26 22 -21 0 -144 73 -203 121 -25 20 -56 42 -70 49 -14 7 -32 19 -40 26 -8 8
-28 24 -44 37 -36 29 -28 49 17 40 l32 -6 -30 31 c-25 25 -32 28 -41 16 -10
-12 -14 -11 -26 8 -8 13 -17 31 -21 41 -4 9 -10 16 -15 15 -4 -2 -25 14 -46
35 -22 20 -45 37 -53 37 -7 0 -13 4 -13 8 0 4 -9 8 -20 9 -11 1 -53 37 -95 79
-80 84 -90 108 -58 154 31 46 213 248 238 264 34 23 39 21 84 -26 29 -31 41
-38 41 -25 0 9 -4 17 -10 17 -16 0 -12 38 7 66 l16 25 49 -48 c27 -26 70 -79
94 -117 25 -38 68 -93 96 -122 60 -64 78 -60 78 17 0 29 5 49 11 49 25 0 147
-78 224 -144 168 -144 228 -192 318 -253 50 -35 94 -69 98 -75 15 -24 -3 -27
-41 -8 -22 11 -47 20 -57 20 -10 -1 2 -10 27 -21 25 -12 57 -27 72 -35 14 -8
32 -14 40 -14 7 0 58 -17 113 -39 98 -37 166 -68 355 -159 52 -25 110 -48 129
-51 45 -8 49 -25 11 -43 l-31 -15 49 -7 c27 -3 73 -18 103 -32 60 -30 155 -64
176 -64 7 0 13 4 13 10 0 10 -139 80 -158 80 -19 0 -72 35 -72 48 0 15 15 15
41 2 10 -6 58 -22 106 -35 249 -70 341 -96 369 -105 17 -6 39 -10 50 -10 10 0
37 -7 59 -15 22 -8 58 -14 79 -15 41 0 112 -11 231 -36 39 -8 142 -21 230 -29
88 -9 205 -20 260 -25 55 -5 115 -9 133 -10 22 0 32 -5 32 -15 0 -8 -6 -15
-13 -15 -7 0 -29 -12 -48 -26 -19 -14 -44 -30 -57 -35 -23 -9 -22 -29 2 -29 7
0 34 11 60 25 60 32 66 32 67 -7 2 -30 2 -30 6 -6 2 14 11 32 19 39 19 16 50
-11 63 -55 15 -50 70 -177 92 -212 11 -18 34 -45 50 -59 28 -23 39 -25 118
-25 100 0 130 8 221 60 53 31 78 39 135 43 39 3 86 13 106 21 95 40 228 173
401 401 62 82 111 114 211 137 102 24 139 49 226 153 38 45 111 126 161 181
51 54 114 130 141 169 26 38 109 127 183 198 74 70 169 167 210 215 185 213
431 564 531 757 28 55 72 138 97 185 66 121 108 283 128 493 6 62 18 155 27
207 9 60 15 155 14 257 0 204 -26 332 -105 520 -67 159 -82 210 -101 345 -8
59 -26 160 -40 225 -39 179 -39 177 -20 193 13 11 25 12 61 2 83 -22 104 -14
104 42 0 26 -46 164 -86 256 -30 71 -162 333 -212 421 -35 61 -38 79 -27 155
l7 52 -119 118 c-65 66 -138 144 -162 174 -40 50 -42 58 -36 95 19 115 31 91
-116 233 l-133 129 2 57 c3 73 -8 89 -127 183 -103 81 -155 110 -241 138 -30
10 -59 21 -65 26 -13 12 -25 11 -25 -2 0 -17 151 -268 180 -299 14 -15 37 -51
53 -81 36 -71 181 -303 206 -330 23 -25 191 -335 191 -354 0 -7 -5 -15 -11
-17 -11 -4 -10 -7 54 -153 20 -44 52 -120 72 -170 20 -49 40 -99 44 -110 5
-11 21 -54 36 -95 15 -41 39 -109 55 -150 16 -41 36 -106 46 -145 9 -38 21
-77 26 -87 4 -9 24 -79 44 -155 20 -76 46 -174 58 -217 22 -84 46 -112 46 -54
0 29 -8 83 -50 343 -19 112 -8 123 39 40 33 -58 58 -149 91 -331 24 -134 26
-291 5 -562 -19 -251 -21 -262 -44 -262 -25 0 -31 19 -31 98 0 59 -26 261 -46
362 -4 19 -17 53 -30 76 -26 45 -29 66 -13 92 8 12 6 34 -6 82 -9 36 -20 85
-25 110 -6 25 -16 63 -24 85 -8 22 -24 81 -36 130 -12 50 -31 119 -41 155 -11
36 -24 79 -28 95 -33 111 -74 243 -81 260 -5 11 -13 36 -19 55 -80 262 -251
658 -338 782 -18 26 -33 52 -33 57 0 4 -8 19 -18 32 -10 13 -24 40 -32 59 -7
19 -28 55 -47 79 -18 24 -33 48 -33 53 0 4 -15 30 -34 56 -18 27 -42 64 -51
83 -10 19 -21 36 -25 39 -4 3 -12 14 -19 25 l-13 20 8 -20 c23 -68 16 -71 -36
-15 -31 33 -50 47 -47 35 4 -11 9 -32 12 -46 4 -15 20 -40 37 -55 27 -27 30
-28 42 -11 7 9 17 17 22 17 10 0 70 -87 81 -117 4 -10 14 -29 23 -43 10 -14
46 -74 80 -135 35 -60 72 -119 82 -131 10 -11 18 -26 18 -32 0 -7 4 -20 10
-30 21 -37 108 -230 125 -277 10 -27 22 -55 26 -60 5 -6 27 -62 49 -125 23
-63 54 -149 70 -190 15 -41 40 -113 53 -160 14 -47 30 -98 36 -115 11 -32 40
-140 72 -269 11 -44 17 -87 13 -95 -14 -32 -2 -126 22 -174 38 -76 86 -219 72
-215 -7 3 -19 17 -28 33 -9 16 -22 31 -30 33 -10 4 -9 -3 5 -24 10 -16 30 -49
44 -74 13 -25 30 -52 36 -60 22 -27 57 -321 71 -590 3 -63 7 -121 10 -129 6
-19 -17 -281 -27 -308 -7 -18 -16 -23 -45 -23 l-37 0 21 -23 c27 -28 27 -44 3
-94 -10 -21 -27 -58 -36 -83 -30 -77 -32 -83 -68 -160 -71 -150 -128 -266
-165 -335 -58 -108 -171 -288 -204 -325 -7 -8 -18 -27 -25 -42 -7 -15 -17 -33
-22 -40 -33 -40 -80 -100 -106 -137 -16 -24 -42 -57 -57 -74 -16 -17 -28 -34
-28 -38 0 -12 -136 -170 -325 -378 -76 -84 -127 -123 -237 -181 -53 -28 -109
-44 -63 -18 11 6 40 32 65 58 25 25 62 57 83 69 41 25 50 47 15 37 -13 -3 -30
-6 -38 -6 -8 0 -33 -16 -54 -35 -22 -19 -43 -35 -47 -35 -4 0 -30 -18 -58 -40
-56 -45 -126 -64 -136 -37 -4 8 3 31 13 51 11 20 18 45 15 55 -3 13 3 21 24
28 15 6 54 35 85 66 42 42 55 61 51 76 -3 12 -11 21 -19 21 -17 0 -37 37 -25
44 5 4 16 4 24 0 18 -7 30 32 16 57 -13 26 -11 33 6 19 12 -10 16 -10 18 1 3
8 9 31 16 51 6 20 9 47 6 61 -5 18 4 36 37 78 62 77 102 142 149 239 48 99 66
122 90 115 11 -4 26 5 43 25 23 28 102 182 139 271 14 34 19 37 78 48 35 6 71
19 80 28 19 20 147 355 204 533 20 63 42 121 49 128 10 10 22 10 62 -2 44 -13
107 -28 174 -42 47 -10 -1 14 -72 37 -121 37 -112 11 -120 356 -4 192 -12 328
-22 383 -8 47 -23 126 -32 175 -17 96 -15 226 5 264 6 11 23 59 37 107 13 47
31 99 40 116 8 16 12 33 9 36 -11 11 -55 -50 -66 -93 -26 -100 -64 -205 -74
-205 -6 0 -31 55 -54 123 -63 179 -173 400 -190 381 -9 -10 -27 -82 -72 -294
-22 -100 -34 -191 -39 -295 -17 -312 -44 -522 -96 -740 -33 -141 -38 -147 -98
-136 -72 13 -57 -6 27 -33 9 -3 17 -13 17 -23 0 -47 -79 -253 -151 -394 -80
-154 -81 -157 -74 -211 l7 -55 -101 -134 c-57 -75 -121 -148 -146 -167 -25
-18 -45 -39 -45 -46 0 -8 -8 -17 -17 -20 -10 -3 -51 -38 -91 -76 -40 -39 -80
-70 -88 -70 -13 0 -34 -9 -74 -32 -8 -4 -25 -12 -38 -18 -12 -5 -33 -21 -46
-35 -18 -19 -36 -25 -84 -30 -57 -5 -62 -4 -77 19 -17 26 -28 153 -13 162 5 3
18 26 30 50 19 41 19 46 5 57 -14 10 -14 15 -2 30 13 18 14 18 23 0 10 -17 11
-17 31 1 12 11 21 25 21 33 0 8 10 27 21 43 12 16 19 36 16 45 -5 11 1 19 18
25 14 5 25 12 25 15 0 4 -4 4 -9 1 -5 -3 -11 1 -15 9 -8 22 32 84 60 91 19 5
24 13 25 38 1 17 3 23 6 13 7 -28 33 -1 34 37 l1 31 7 -30 c7 -29 7 -29 15 -7
4 12 4 32 0 44 -6 20 -5 21 8 10 13 -10 19 -10 32 3 9 9 19 28 22 42 4 14 24
42 44 62 20 20 43 54 51 76 8 22 24 55 37 74 12 19 25 46 29 60 3 14 14 39 24
55 9 16 15 34 12 41 -2 7 3 27 11 44 9 16 17 39 19 50 2 11 11 29 21 40 10 11
17 30 16 43 -5 53 -3 55 58 60 32 3 89 -1 130 -9 81 -17 120 -6 60 16 -62 23
-142 66 -152 83 -7 11 -6 40 2 90 19 118 29 256 22 311 -8 64 36 237 92 362
25 55 49 111 53 123 4 13 29 48 56 78 27 30 49 57 49 60 0 13 -65 -34 -89 -64
-61 -79 -60 -78 -70 -63 -5 7 -14 57 -20 110 -13 106 -50 299 -87 461 -25 107
-38 156 -117 430 -57 194 -94 386 -102 515 -6 93 -36 249 -72 372 -17 57 -14
128 7 178 l13 30 8 -42 c14 -77 49 -114 49 -53 0 58 26 99 74 121 51 22 79 19
143 -17 35 -20 103 -98 103 -118 0 -3 23 -53 50 -112 28 -59 49 -108 46 -111
-2 -2 -27 24 -56 59 -91 110 -204 238 -212 238 -17 0 -19 -29 -9 -143 29 -306
82 -554 192 -893 54 -166 81 -230 108 -252 30 -24 99 -8 139 31 51 49 83 59
163 51 52 -5 74 -3 100 10 17 9 33 16 35 16 1 0 13 -19 27 -42 28 -49 74 -95
83 -85 4 4 -3 30 -15 58 -27 61 -22 99 12 99 13 0 28 -5 35 -12 6 -6 15 -9 19
-5 13 14 3 137 -23 255 -7 36 -24 25 -24 -17 0 -45 -29 -88 -53 -78 -33 13
-48 54 -57 163 -12 133 -32 205 -70 247 -33 37 -47 31 -31 -14 16 -47 14 -74
-10 -94 -18 -18 -23 -18 -61 -5 -36 13 -48 26 -102 115 -34 55 -78 125 -98
155 -48 70 -48 84 0 39 46 -44 127 -109 135 -109 4 0 10 15 15 33 11 42 34 44
96 9 36 -19 63 -46 94 -92 24 -36 52 -66 62 -68 11 -2 31 -32 54 -82 20 -44
36 -82 36 -84 0 -3 11 -30 25 -60 14 -30 39 -96 56 -148 17 -51 35 -97 40
-102 5 -6 9 -18 9 -27 0 -10 4 -20 10 -24 11 -7 2 21 -73 235 -30 86 -69 187
-87 225 -58 125 -113 229 -142 272 -15 23 -28 45 -28 50 -1 10 -60 80 -60 70
0 -4 14 -31 30 -60 17 -30 27 -56 24 -60 -4 -3 -25 6 -48 22 -22 15 -72 45
-111 66 -136 73 -210 146 -255 250 -26 61 -24 118 5 123 11 2 24 8 29 13 15
14 -35 76 -81 99 -50 25 -96 80 -87 104 4 10 -1 18 -12 23 -11 4 -35 18 -54
31 -19 13 -74 44 -123 67 -48 24 -99 53 -114 65 -26 20 -28 20 -40 4 -7 -10
-15 -34 -18 -53 -17 -108 -59 -276 -71 -289 -16 -15 -11 -47 12 -73 8 -8 14
-24 14 -35 0 -11 4 -24 9 -30 6 -5 19 -45 31 -89 63 -231 69 -268 89 -555 12
-157 21 -307 20 -335 -1 -60 -2 -58 -48 155 -26 121 -48 208 -98 385 -47 168
-90 295 -104 309 -5 6 -9 17 -9 25 0 25 -116 316 -155 391 -13 25 -32 68 -43
95 -11 28 -39 90 -62 140 -49 103 -56 150 -24 150 11 1 30 10 42 21 20 19 21
23 7 34 -32 26 -18 63 76 198 32 46 61 100 65 118 7 40 -16 90 -79 173 -42 54
-52 61 -204 126 -28 12 -32 20 -38 62 -8 62 -13 71 -64 110 -72 56 -258 99
-545 128 -81 8 -155 19 -165 25 -10 5 -21 7 -24 3 -11 -10 -181 -3 -194 9 -9
7 -11 27 -7 67 7 60 26 91 56 91 22 0 24 16 3 24 -9 3 -68 13 -133 21 -152 20
-184 28 -262 60 -51 22 -88 29 -185 35 -86 6 -151 17 -227 39 -167 48 -347 77
-679 110 -319 32 -624 40 -829 20z m1053 -258 c86 -11 165 -25 176 -31 30 -15
44 -49 42 -97 -1 -47 -3 -46 89 -58 25 -3 83 -14 130 -25 47 -11 126 -27 175
-35 140 -23 178 -34 193 -56 8 -11 46 -35 86 -53 119 -55 276 -196 276 -248 0
-38 -38 -51 -91 -33 -23 8 -50 15 -61 15 -10 0 -41 11 -68 25 -27 14 -60 25
-73 25 -13 0 -32 9 -42 20 -10 11 -26 20 -36 20 -10 0 -24 7 -33 15 -8 8 -26
15 -40 15 -14 0 -45 6 -68 14 -34 11 -108 13 -363 10 -176 -3 -345 -4 -376 -4
-31 1 -98 -6 -150 -14 -65 -10 -143 -13 -254 -10 -88 2 -203 0 -255 -6 -222
-23 -376 -43 -384 -48 -5 -2 -27 -7 -50 -10 -92 -10 -89 -11 -118 48 -14 30
-33 96 -42 145 -9 50 -24 111 -33 136 -15 45 -15 47 7 76 24 33 48 47 120 69
115 36 419 89 590 104 182 15 490 11 653 -9z m313 -12 c3 -5 16 -9 30 -9 14 0
40 -6 58 -14 30 -12 34 -18 32 -46 -3 -41 -19 -50 -83 -48 -50 2 -52 3 -58 35
-4 21 -16 39 -33 50 -15 9 -29 18 -31 20 -2 1 1 9 7 16 12 14 68 11 78 -4z
m712 -195 c4 -85 -4 -90 -110 -73 -46 7 -89 12 -96 10 -13 -2 -37 7 -116 45
-16 8 -35 14 -42 14 -18 0 -26 17 -19 40 7 22 39 25 255 25 l125 0 3 -61z
m-2429 -16 c6 -18 18 -69 26 -113 9 -44 21 -84 26 -89 5 -6 9 -19 9 -29 0 -10
9 -50 21 -88 11 -38 19 -74 17 -80 -2 -7 -17 -13 -33 -15 -26 -3 -145 -54
-205 -89 -14 -8 -47 -26 -75 -40 -69 -34 -117 -64 -178 -109 -28 -21 -75 -49
-104 -63 -39 -19 -58 -35 -70 -60 -18 -38 -157 -153 -185 -153 -10 0 -18 -5
-18 -11 0 -15 -59 -37 -121 -45 -30 -4 -58 -10 -64 -14 -21 -16 -143 -52 -166
-48 -20 2 -25 10 -27 41 -3 33 7 55 66 150 76 121 97 157 149 256 45 86 66
110 148 174 203 157 456 323 575 376 52 23 111 50 130 61 52 27 67 25 79 -12z
m3035 -107 c3 -4 23 -11 45 -15 42 -6 62 -23 41 -36 -14 -9 -176 32 -193 49
-8 8 4 11 45 11 31 0 59 -4 62 -9z m-3544 -69 c0 -12 -29 -37 -82 -72 -172
-112 -318 -234 -354 -297 -21 -34 -30 -42 -47 -38 -18 5 -49 -21 -162 -133
-188 -186 -372 -376 -535 -552 -168 -182 -200 -214 -207 -206 -3 3 14 34 37
68 44 63 52 74 155 203 72 90 219 249 417 451 87 88 158 166 158 172 0 33 -42
7 -219 -135 -113 -91 -143 -104 -110 -49 37 63 294 287 404 353 53 31 408 211
475 241 40 17 70 15 70 -6z m3533 -146 c18 -8 41 -16 52 -19 11 -3 65 -21 120
-42 55 -20 112 -40 127 -45 56 -17 147 -63 152 -76 7 -19 -22 -30 -37 -15 -13
13 -27 15 -27 3 0 -5 23 -47 51 -93 28 -46 62 -106 75 -134 20 -42 34 -56 85
-83 33 -19 64 -43 68 -56 6 -13 3 -55 -5 -106 -8 -47 -15 -105 -15 -130 -2
-72 -12 -84 -70 -77 -28 4 -65 17 -86 32 -21 14 -50 25 -66 25 -38 0 -72 24
-95 69 -16 30 -18 46 -11 89 9 59 46 140 90 194 35 44 35 54 3 93 l-25 30 7
-42 c5 -36 2 -47 -26 -88 -38 -55 -74 -144 -90 -221 -9 -43 -14 -53 -24 -45
-9 8 -13 44 -14 117 0 59 -5 111 -11 117 -9 9 -61 -52 -83 -100 -12 -24 -38
-39 -38 -21 0 6 13 49 29 97 17 47 39 133 51 190 12 58 24 109 27 114 3 4 -3
14 -12 21 -28 20 -15 51 23 54 33 3 42 16 19 25 -8 3 -36 1 -63 -4 -37 -7 -57
-6 -84 5 -66 27 -145 55 -173 61 -35 7 -44 30 -22 55 21 23 55 25 98 6z m-980
-165 c65 -5 102 -12 107 -21 5 -8 6 -35 3 -60 -4 -35 0 -58 15 -91 25 -53 49
-85 59 -76 3 4 -1 15 -9 24 -26 29 -41 97 -34 147 8 52 17 60 52 52 23 -6 25
-10 17 -39 -14 -57 -8 -94 23 -138 65 -95 182 -127 268 -74 30 18 43 21 53 13
24 -19 14 -36 -37 -65 -47 -26 -63 -43 -40 -43 18 0 90 32 90 40 0 13 36 18
56 7 26 -14 64 -49 64 -59 0 -5 -20 -28 -45 -50 -25 -23 -43 -43 -41 -46 3 -2
26 6 51 18 25 12 48 21 49 19 8 -9 76 -158 76 -166 0 -16 -33 -40 -75 -54 -22
-7 -45 -17 -51 -21 -5 -4 -43 -13 -84 -19 -64 -11 -70 -14 -46 -20 36 -10 122
6 205 37 36 14 71 22 78 20 7 -3 19 -21 27 -41 8 -19 22 -38 31 -41 9 -4 14
-14 11 -23 -2 -9 -7 -29 -10 -44 -7 -30 -54 -57 -100 -57 -13 0 -56 -16 -95
-35 -81 -40 -102 -42 -156 -15 -22 11 -43 20 -47 20 -5 0 -41 24 -81 54 -109
81 -264 245 -325 346 -63 101 -86 128 -97 111 -6 -11 34 -80 64 -110 9 -9 33
-44 51 -77 19 -32 57 -87 85 -122 68 -83 82 -109 69 -130 -13 -20 -87 -38 -92
-22 -2 5 -15 10 -28 10 -14 0 -67 18 -119 40 -52 22 -118 46 -148 54 -30 8
-63 19 -73 24 -33 18 -256 52 -380 59 -155 9 -853 9 -924 1 -30 -3 -63 -9 -73
-13 -45 -18 -109 73 -111 159 l-1 49 50 14 c99 27 272 51 410 57 l140 6 32 36
32 36 108 -11 c59 -6 132 -15 162 -20 34 -5 63 -5 81 2 22 8 46 6 111 -11 245
-63 299 -68 299 -28 0 7 25 46 55 86 l55 74 0 108 c0 139 -7 134 183 119z
m935 -120 c4 -64 -2 -83 -23 -75 -17 7 -55 74 -55 97 0 22 23 38 50 35 23 -3
25 -8 28 -57z m-390 -33 c19 -19 14 -56 -9 -68 -34 -19 -52 -5 -44 32 4 18 9
36 12 41 6 11 27 9 41 -5z m-3628 -76 c-69 -129 -135 -209 -108 -130 6 18 18
44 27 58 30 49 103 141 108 136 3 -2 -9 -31 -27 -64z m1265 58 c-3 -5 -13 -10
-21 -10 -8 0 -14 5 -14 10 0 6 9 10 21 10 11 0 17 -4 14 -10z m-1425 -257 c1
-69 17 -116 50 -143 l32 -26 -111 -101 c-116 -106 -164 -136 -209 -131 -22 2
-28 9 -30 33 -2 25 7 40 53 88 63 66 68 82 25 74 -17 -4 -30 -2 -30 3 0 10 44
61 119 140 18 19 45 50 58 68 33 42 43 41 43 -5z m-324 -31 c-8 -16 -28 -40
-44 -53 -15 -13 -52 -56 -82 -94 -49 -63 -136 -169 -167 -203 -11 -11 -13 -11
-13 1 0 15 82 138 135 202 60 73 175 189 181 183 3 -4 -1 -20 -10 -36z m1803
-36 c9 -11 81 -243 81 -262 0 -10 -29 -3 -40 11 -16 19 -51 19 -76 0 -10 -8
-31 -15 -46 -15 -15 0 -29 -4 -32 -9 -7 -11 -133 -49 -186 -57 -19 -3 -106
-33 -145 -50 -16 -7 -49 -18 -72 -24 -55 -14 -148 -57 -164 -76 -8 -9 -21 -13
-35 -10 -34 9 -37 -8 -9 -49 13 -21 22 -41 20 -46 -3 -4 -31 -16 -63 -25 -60
-19 -87 -34 -60 -34 50 0 -5 -63 -128 -147 -21 -13 -107 -89 -193 -168 -142
-130 -210 -198 -458 -457 -89 -93 -256 -234 -354 -299 -34 -23 -124 -99 -199
-168 -134 -124 -139 -128 -221 -154 -130 -41 -259 -75 -259 -68 1 17 23 35 79
65 35 18 84 51 110 73 95 82 143 190 52 118 -45 -36 -95 -51 -129 -41 -29 10
-55 72 -60 144 -8 117 48 267 150 404 77 105 110 85 42 -25 -20 -32 -33 -61
-30 -65 4 -3 33 23 66 58 52 56 59 61 51 35 -4 -17 -20 -53 -34 -81 -22 -44
-121 -303 -147 -385 -11 -35 2 -53 31 -46 24 7 236 160 359 259 87 71 393 379
502 506 72 84 88 108 88 135 0 42 -46 87 -115 112 -67 24 -72 29 -104 100 -30
66 -64 95 -110 95 -39 0 -81 -48 -205 -235 -29 -44 -79 -123 -110 -175 -71
-116 -81 -128 -57 -64 38 103 107 242 163 327 68 102 76 117 56 117 -8 0 -42
-28 -74 -62 -58 -61 -78 -88 -178 -248 -90 -144 -178 -236 -213 -223 -45 16
39 241 97 262 14 5 77 60 140 121 217 212 322 272 510 290 137 13 196 34 247
85 48 47 56 71 21 60 -49 -15 -63 -11 -66 18 -7 57 113 218 209 280 51 34 189
62 189 39 0 -5 -36 -51 -81 -103 -100 -117 -240 -324 -232 -344 3 -8 13 -15
22 -15 14 0 311 97 384 125 22 9 22 -11 0 -56 -19 -39 -23 -110 -6 -116 7 -3
15 11 19 34 7 42 47 128 72 156 13 15 207 127 219 127 3 0 46 19 96 43 133 63
330 139 487 188 101 32 114 33 129 15z m2960 -24 c6 -21 12 -57 15 -80 2 -27
15 -59 34 -85 27 -38 38 -45 118 -69 49 -15 104 -26 123 -25 19 1 35 -3 37 -8
5 -14 -84 -115 -101 -115 -35 0 -127 44 -169 82 -88 76 -119 172 -89 275 10
34 19 63 20 63 1 0 7 -17 12 -38z m-82 -49 c-48 -91 -192 -157 -262 -121 -21
11 -34 32 -51 79 -22 60 -30 99 -20 99 3 0 24 -13 48 -29 50 -33 99 -51 140
-51 30 0 98 41 133 80 l20 22 3 -25 c2 -14 -3 -38 -11 -54z m-4607 -23 c0 -5
-5 -10 -11 -10 -5 0 -7 5 -4 10 3 6 8 10 11 10 2 0 4 -4 4 -10z m5209 -102
c137 -292 291 -701 359 -953 75 -279 92 -356 141 -655 47 -290 52 -625 13
-904 -29 -200 -107 -436 -171 -516 -12 -14 -21 -20 -21 -15 0 15 64 256 93
352 52 168 83 516 66 757 -10 161 -40 382 -69 511 -11 50 -28 128 -39 175 -32
146 -118 437 -171 580 -18 47 -47 128 -66 180 -20 52 -50 129 -69 170 -101
226 -125 291 -125 339 0 42 5 61 17 61 1 0 20 -37 42 -82z m-596 5 c2 -21 -2
-54 -10 -72 l-14 -35 -26 26 c-29 30 -27 64 7 98 29 29 37 25 43 -17z m-4778
-90 c-49 -54 -94 -102 -99 -108 -6 -5 -24 -28 -41 -50 -16 -21 -36 -46 -45
-55 -8 -9 -51 -60 -94 -113 -44 -53 -84 -97 -89 -97 -18 0 113 168 222 286 36
38 101 109 145 157 43 48 81 85 84 83 3 -3 -35 -50 -83 -103z m5317 10 c8 -16
21 -46 28 -68 7 -22 24 -65 38 -95 13 -30 29 -66 34 -80 6 -14 16 -38 24 -53
8 -16 14 -36 14 -46 0 -9 5 -22 12 -29 6 -6 8 -15 4 -19 -9 -10 -24 13 -36 59
-6 20 -15 40 -20 43 -17 10 -11 -37 9 -79 20 -42 31 -71 82 -216 17 -47 41
-113 55 -147 22 -56 37 -120 63 -278 5 -27 16 -88 25 -135 53 -283 77 -537 75
-800 0 -86 -13 -54 -28 70 -7 52 -16 118 -22 145 -5 28 -23 127 -40 220 -52
292 -102 499 -178 730 -77 235 -142 377 -213 466 -79 97 -110 149 -104 172 3
12 30 46 60 76 54 54 56 54 76 36 11 -10 20 -13 20 -7 0 6 -4 14 -10 17 -15 9
-12 45 3 45 7 0 20 -12 29 -27z m533 -27 c13 -30 12 -44 -10 -137 -31 -134
-51 -208 -58 -215 -12 -12 -27 9 -27 38 0 30 58 326 67 341 8 13 14 7 28 -27z
m-1876 -30 c73 -67 192 -137 251 -146 38 -7 54 -3 102 21 65 33 78 35 78 15 0
-14 -64 -76 -78 -76 -4 0 -32 -23 -62 -51 -30 -28 -72 -63 -92 -76 l-37 -25
-68 35 c-37 19 -128 65 -200 102 -73 37 -133 73 -133 81 0 18 31 33 84 40 61
9 106 37 106 67 0 43 14 46 49 13z m705 -11 c27 -35 46 -95 29 -95 -13 0 -112
36 -120 43 -3 4 -17 7 -30 7 -31 0 -29 16 8 51 43 40 79 39 113 -6z m1301 -40
c22 -12 56 -28 75 -35 19 -8 48 -24 63 -37 l29 -23 -31 0 c-76 0 -211 71 -211
110 0 22 10 20 75 -15z m-2936 -36 c23 -8 31 -17 31 -35 0 -28 -15 -30 -58 -8
-36 17 -46 30 -37 44 8 13 24 13 64 -1z m-3133 -59 c-34 -52 -166 -189 -166
-173 0 22 178 228 188 218 3 -2 -7 -23 -22 -45z m3379 30 c91 -13 171 -33 265
-65 148 -52 198 -77 230 -118 l21 -27 -32 0 c-18 0 -52 9 -75 21 -52 25 -117
23 -122 -3 -2 -11 8 -22 30 -32 77 -35 121 -67 171 -123 101 -113 124 -231 58
-297 l-31 -31 0 81 c0 58 -5 90 -19 117 -10 20 -22 47 -25 59 -8 29 -32 57
-76 88 -19 13 -61 45 -92 71 -31 26 -66 50 -78 54 -11 3 -20 13 -20 20 0 14
-37 45 -52 45 -13 0 -9 -39 7 -70 25 -48 45 -151 34 -172 -5 -10 -14 -18 -20
-18 -6 0 -56 41 -112 91 -56 51 -113 96 -127 102 -14 6 -32 16 -40 23 -13 10
-106 58 -167 87 -37 17 -27 29 17 22 45 -8 70 5 70 37 0 29 19 58 38 58 9 0
76 -9 147 -20z m1212 -17 c2 -6 -2 -16 -9 -22 -71 -59 -127 -101 -137 -101 -6
0 -11 11 -11 25 0 19 9 31 32 43 17 9 45 29 62 44 31 28 56 32 63 11z m-2004
-93 c231 -79 453 -205 551 -311 67 -72 81 -96 97 -174 24 -120 -20 -259 -89
-279 -51 -14 -56 6 -21 76 23 46 30 73 31 126 1 102 -24 181 -58 182 -7 0 -15
7 -18 16 -4 9 -9 14 -13 11 -3 -4 -33 18 -67 48 -33 30 -65 55 -69 55 -5 0
-21 9 -36 20 -46 32 -180 71 -257 73 -61 3 -77 7 -110 33 -22 16 -66 42 -99
58 -33 15 -70 33 -82 39 -32 15 -28 36 10 52 53 23 106 17 230 -25z m2146 14
c26 -10 43 -25 51 -45 7 -16 55 -93 106 -171 55 -84 101 -165 110 -195 8 -28
21 -57 29 -63 20 -17 72 -109 90 -160 8 -23 31 -64 50 -91 20 -26 61 -101 90
-166 83 -178 75 -187 -41 -46 -99 122 -223 253 -238 253 -7 0 -25 -13 -41 -30
-29 -30 -61 -41 -52 -17 5 11 27 108 45 197 4 19 5 64 2 100 -4 50 -9 66 -22
68 -17 3 -58 -61 -58 -93 0 -39 -74 -165 -133 -228 -108 -113 -194 -152 -374
-167 -183 -15 -280 -35 -346 -71 -56 -30 -85 -31 -69 -3 4 8 38 36 74 63 80
58 136 75 320 96 76 8 161 20 189 25 93 18 191 97 230 186 26 58 38 171 23
209 -7 17 -21 53 -32 80 -14 35 -33 59 -62 80 -22 17 -50 45 -61 63 -20 33
-44 50 -57 38 -4 -4 -7 -56 -7 -116 0 -105 -1 -109 -30 -145 -36 -44 -82 -69
-155 -85 -98 -21 -109 -16 -151 71 -21 42 -48 84 -60 92 -19 14 -20 19 -9 32
7 8 18 15 24 15 24 0 79 -58 96 -100 29 -75 89 -79 193 -14 72 45 77 77 15 89
-20 4 -112 85 -104 92 2 2 14 -1 28 -6 22 -8 26 -6 37 24 6 19 21 37 32 40 12
4 38 23 58 43 36 36 104 68 148 71 13 0 40 -6 62 -15z m249 -39 c36 -30 102
-55 147 -55 32 0 85 -37 85 -59 0 -6 8 -7 17 -4 13 5 15 2 10 -11 -4 -10 -7
-22 -7 -27 0 -15 -22 -10 -36 8 -7 10 -15 15 -19 11 -4 -4 7 -27 25 -52 17
-26 53 -94 79 -154 26 -59 57 -127 68 -152 26 -56 124 -329 157 -435 98 -318
246 -889 232 -902 -1 -2 -13 32 -25 74 -82 280 -237 722 -282 802 -5 9 -22 50
-38 91 -25 65 -87 198 -137 295 -9 17 -43 84 -77 150 -62 123 -83 158 -193
327 -35 54 -64 102 -64 108 0 18 28 11 58 -15z m1720 -4 c3 -8 -1 -12 -9 -9
-7 2 -15 10 -17 17 -3 8 1 12 9 9 7 -2 15 -10 17 -17z m-1402 -98 c-10 -10
-19 5 -10 18 6 11 8 11 12 0 2 -7 1 -15 -2 -18z m-3119 -24 c59 -23 158 -109
151 -131 -3 -7 -30 -31 -62 -53 -36 -25 -75 -66 -105 -110 -27 -38 -60 -81
-74 -94 -25 -23 -26 -23 -77 -6 -28 9 -65 19 -83 22 -18 3 -37 9 -43 14 -6 5
-43 7 -83 4 -56 -3 -71 -1 -71 9 0 30 136 116 183 116 25 0 88 -41 121 -79 27
-30 42 -26 72 20 14 22 50 66 80 96 43 44 52 58 43 69 -6 8 -21 14 -33 14 -11
0 -63 9 -115 20 -119 25 -167 25 -226 0 -53 -23 -119 -27 -113 -7 3 6 51 38
109 70 l104 58 82 -6 c47 -3 107 -14 140 -26z m-414 -6 c12 -11 -203 -144
-247 -152 -23 -4 -127 -42 -233 -84 -105 -43 -196 -77 -202 -77 -20 0 -10 15
32 47 148 113 171 127 193 119 8 -3 47 10 86 28 40 18 109 45 153 59 44 15
103 35 130 46 54 21 78 25 88 14z m2314 -25 c24 -18 40 -34 34 -36 -6 -2 -27
9 -48 24 -55 40 -59 44 -44 44 7 0 33 -15 58 -32z m-4453 14 c2 -4 -24 -50
-58 -102 -53 -81 -248 -414 -269 -460 -4 -8 -16 -28 -26 -45 -40 -64 -91 -157
-91 -166 0 -5 -4 -9 -10 -9 -11 0 -3 26 20 60 9 14 23 41 30 60 7 19 21 46 30
60 9 14 23 40 30 59 7 18 23 45 35 60 19 23 105 200 105 215 0 4 12 25 27 49
14 23 36 58 49 77 12 19 38 61 58 93 33 52 57 69 70 49z m5633 -14 c-3 -8 -6
-5 -6 6 -1 11 2 17 5 13 3 -3 4 -12 1 -19z m40 0 c-3 -8 -6 -5 -6 6 -1 11 2
17 5 13 3 -3 4 -12 1 -19z m0 -80 c-3 -7 -5 -2 -5 12 0 14 2 19 5 13 2 -7 2
-19 0 -25z m-3577 -37 c0 -16 -83 -81 -103 -81 -15 0 -18 -5 -14 -21 9 -33 -1
-47 -62 -86 -31 -21 -74 -52 -95 -70 -59 -49 -67 -40 -13 15 27 28 52 64 58
85 8 31 15 37 44 43 34 6 49 24 22 24 -16 0 -106 -30 -157 -53 -86 -38 -108
-47 -114 -47 -8 0 -160 -75 -248 -123 -153 -83 -433 -288 -570 -417 -38 -35
-79 -71 -92 -80 -62 -42 -420 -419 -516 -544 -14 -17 -55 -68 -91 -112 -68
-81 -246 -315 -264 -346 -13 -22 -75 -68 -92 -68 -23 0 -14 22 37 92 28 38 50
71 50 73 0 3 7 13 16 23 8 9 61 78 116 152 240 320 550 650 819 871 238 195
368 288 534 383 55 31 107 61 115 66 39 25 135 72 187 91 32 12 76 30 98 39
116 51 169 71 180 66 8 -3 42 3 77 13 78 23 78 23 78 12z m3616 -56 c0 -18 -3
-32 -8 -29 -10 6 -11 64 0 64 4 0 7 -16 8 -35z m36 10 c-4 -26 -22 -35 -22
-12 0 10 18 37 26 37 1 0 -1 -11 -4 -25z m-3576 -41 c3 -8 -30 -35 -101 -84
-144 -99 -482 -401 -598 -535 -33 -38 -93 -106 -133 -150 -219 -242 -601 -772
-731 -1015 -165 -308 -178 -339 -162 -408 11 -50 33 -82 56 -82 10 0 12 6 7
23 -4 12 -7 48 -7 79 1 50 10 75 78 210 43 84 82 158 87 163 7 7 8 -25 3 -95
-15 -223 -21 -465 -12 -477 7 -10 124 -53 142 -53 1 0 -3 17 -11 38 -42 117
19 758 88 928 24 59 123 209 155 235 15 13 16 11 9 -16 -4 -16 -26 -82 -48
-145 -98 -278 -149 -634 -132 -918 5 -81 4 -111 -5 -117 -9 -5 -8 -12 6 -27
18 -20 17 -21 -13 -47 l-30 -26 11 -225 c6 -124 8 -238 3 -254 -6 -23 -2 -36
20 -65 43 -56 78 -114 87 -141 34 -114 216 -503 282 -605 18 -27 33 -53 33
-57 0 -10 117 -178 146 -209 13 -14 24 -30 24 -37 0 -7 5 -12 10 -12 18 0 11
19 -32 88 -22 37 -68 117 -101 177 -52 94 -61 119 -65 173 -3 41 -1 62 7 62
11 0 43 -57 56 -100 7 -25 65 -120 72 -120 2 0 2 4 -2 10 -3 5 -1 17 6 28 9
15 0 39 -61 147 -40 72 -83 141 -96 155 -27 30 -151 305 -183 405 -12 39 -26
84 -31 100 -14 46 -19 97 -25 275 -3 99 -2 159 4 150 5 -8 19 -70 30 -138 12
-68 36 -167 53 -220 16 -53 36 -117 43 -142 7 -25 26 -74 43 -110 17 -36 49
-105 72 -155 41 -90 176 -305 192 -305 13 0 9 17 -7 30 -8 7 -15 16 -15 20 0
5 -30 57 -66 117 -37 59 -73 125 -80 145 -7 21 -27 68 -44 105 -45 95 -49 106
-82 213 -47 152 -56 191 -93 410 -42 241 -37 581 11 845 52 288 201 655 366
907 102 154 152 217 271 343 59 63 78 77 88 68 15 -15 -5 -42 -123 -168 -116
-124 -283 -377 -360 -547 -87 -193 -162 -422 -193 -590 -70 -378 -50 -782 58
-1173 51 -182 153 -415 244 -553 66 -102 78 -116 70 -84 -7 29 4 28 72 -5 46
-23 69 -28 131 -27 81 0 76 -2 285 116 45 26 84 42 89 37 10 -9 -10 -39 -26
-39 -6 0 -23 -9 -39 -21 -17 -11 -55 -35 -87 -51 -31 -17 -64 -36 -72 -43 -8
-8 -27 -17 -43 -20 -15 -4 -30 -12 -34 -18 -4 -6 0 -8 8 -5 8 3 37 13 66 22
28 9 57 24 63 32 7 7 18 14 25 14 7 0 18 6 24 14 15 17 134 76 154 76 15 0 67
-61 67 -79 0 -6 -31 -41 -69 -78 -187 -184 -281 -272 -307 -289 -31 -20 -73
-64 -74 -76 0 -18 37 -6 65 20 17 15 62 56 100 91 39 35 138 131 222 214 83
82 169 160 190 173 l38 23 -32 1 c-49 0 -59 7 -129 92 -86 104 -160 223 -239
384 -68 140 -99 234 -142 439 -25 119 -27 149 -26 340 0 232 11 307 79 538 31
106 142 355 178 396 7 9 27 40 45 70 18 30 76 104 130 164 95 107 97 109 132
103 47 -7 88 10 162 68 72 56 126 90 133 83 7 -7 -13 -44 -83 -160 -30 -51
-67 -112 -80 -137 -14 -25 -35 -61 -48 -80 -12 -19 -62 -102 -110 -185 -49
-82 -114 -193 -145 -245 -52 -87 -197 -334 -266 -454 -71 -124 -62 -190 52
-388 42 -73 89 -155 104 -183 16 -27 46 -81 68 -120 21 -38 59 -106 84 -150
25 -44 66 -115 92 -158 25 -43 46 -81 46 -84 0 -3 24 -46 54 -97 54 -90 176
-306 203 -358 8 -15 18 -30 23 -33 5 -3 17 -21 25 -39 22 -46 93 -77 150 -67
22 4 63 5 90 2 l50 -6 0 -40 c0 -45 10 -65 31 -65 10 0 13 12 11 46 -1 32 2
48 12 52 10 3 12 -8 10 -54 l-4 -59 75 -26 c41 -15 109 -35 150 -44 69 -16
113 -35 81 -35 -7 0 -25 -9 -40 -19 -15 -11 -39 -23 -54 -26 -15 -4 -35 -20
-44 -36 -9 -16 -23 -31 -30 -33 -21 -8 -26 13 -8 40 19 30 17 63 -7 77 -21 14
-96 -10 -103 -33 -8 -24 -63 -75 -72 -66 -5 4 -9 31 -10 60 -1 57 -32 129 -58
140 -9 3 -25 1 -35 -4 -28 -15 -40 -12 -40 8 0 38 -41 54 -78 31 -33 -20 -167
24 -230 77 -30 24 -58 44 -63 44 -5 0 -6 6 -3 14 8 22 -40 50 -63 38 -21 -12
-73 -4 -73 10 0 5 7 16 15 24 20 21 19 34 -3 34 -10 0 -40 -23 -67 -51 -28
-28 -74 -67 -103 -86 -63 -40 -152 -129 -195 -193 -16 -25 -73 -89 -126 -142
-73 -75 -91 -98 -75 -98 12 0 33 11 49 26 15 14 29 23 31 21 2 -2 -4 -50 -13
-107 -13 -82 -21 -104 -35 -108 -16 -4 -16 -6 -3 -25 13 -18 22 -107 11 -107
-2 0 -42 39 -90 86 -90 89 -119 104 -41 21 69 -73 68 -83 -10 -163 -37 -37
-78 -86 -92 -107 -44 -69 -126 -147 -156 -147 -17 0 -27 5 -27 15 0 8 -10 21
-22 30 -13 8 -41 39 -63 70 -22 30 -43 55 -47 55 -4 0 -8 6 -8 13 0 16 -39 54
-49 47 -3 -3 -8 6 -9 20 -2 14 -10 29 -18 33 -8 4 -14 17 -14 28 0 28 -43 90
-58 84 -9 -3 -11 1 -7 16 5 14 -6 42 -36 92 -51 86 -149 295 -149 319 0 9 -4
20 -10 23 -5 3 -10 19 -10 35 0 16 -7 41 -15 57 -17 32 -38 83 -40 98 -11 85
-22 128 -44 170 -22 42 -27 46 -29 27 -2 -12 -9 -34 -17 -48 l-13 -26 -21 21
c-25 25 -27 44 -6 61 14 12 14 15 -3 34 -11 12 -22 28 -25 36 -4 8 -5 -23 -3
-70 3 -49 9 -86 15 -88 6 -2 11 -10 11 -19 0 -28 -24 -7 -32 28 -19 86 -30
371 -15 385 13 13 26 -18 20 -47 -4 -21 0 -30 16 -38 14 -8 21 -21 21 -41 0
-17 4 -30 9 -30 11 0 -6 79 -20 96 -5 6 -11 31 -13 55 -5 57 -5 56 -16 39 -8
-13 -10 -12 -10 3 0 9 5 17 11 17 7 0 9 19 4 58 -8 72 7 135 41 169 30 29 30
39 3 46 -18 5 -21 11 -15 44 3 21 8 83 12 138 6 86 4 102 -10 114 -14 12 -16
8 -16 -47 0 -136 -54 -372 -114 -504 l-25 -53 6 151 c5 135 4 158 -15 220 -17
55 -32 81 -74 127 -57 61 -73 68 -81 38 -5 -20 9 -41 27 -41 19 -1 63 -44 79
-76 32 -63 42 -156 29 -287 -13 -130 -27 -197 -42 -197 -6 0 -10 13 -10 28 0
39 -37 177 -61 232 -47 103 -61 131 -66 126 -3 -3 6 -32 21 -65 34 -77 64
-198 82 -334 8 -60 17 -113 19 -118 12 -19 35 7 75 87 23 46 46 86 50 89 4 3
8 -55 9 -128 1 -72 5 -158 9 -189 5 -32 5 -62 2 -69 -5 -8 -34 -7 -105 5 -110
17 -103 19 -210 -53 -33 -23 -68 -41 -77 -41 -23 0 -23 -3 6 -86 51 -151 76
-203 147 -311 43 -66 47 -76 38 -102 -13 -37 -5 -53 107 -222 l84 -126 -19
-61 c-11 -34 -17 -70 -14 -80 4 -9 41 -57 83 -107 42 -49 98 -118 125 -152 28
-34 92 -109 142 -167 51 -58 93 -111 93 -119 0 -18 -134 -153 -158 -159 -21
-6 -47 17 -134 114 -113 126 -176 207 -270 351 -15 23 -33 46 -40 52 -16 12
-88 117 -88 128 0 4 -16 28 -36 54 -36 47 -49 69 -134 233 -27 52 -53 100 -57
105 -16 21 -63 121 -63 132 0 7 -14 43 -31 80 -17 37 -35 77 -39 88 -17 43
-65 141 -76 155 -6 8 -14 28 -18 44 -4 15 -9 26 -13 23 -3 -3 4 -36 16 -74 11
-37 23 -86 26 -108 8 -47 25 -86 36 -80 11 7 18 -22 17 -73 0 -24 4 -48 11
-55 8 -8 11 -7 11 3 1 25 50 -122 50 -148 0 -13 11 -45 24 -71 13 -25 34 -67
46 -94 13 -26 27 -47 32 -47 4 0 8 -6 8 -14 0 -7 7 -19 15 -26 18 -15 60 -100
57 -114 -5 -16 9 -46 19 -41 5 4 9 -3 9 -13 0 -11 7 -25 15 -32 8 -7 15 -19
15 -26 0 -8 5 -14 10 -14 6 0 16 -12 23 -27 18 -42 75 -120 92 -127 8 -3 15
-13 15 -21 0 -17 46 -101 67 -123 7 -7 20 -28 29 -47 9 -19 23 -35 30 -35 8 0
17 -8 20 -17 21 -67 45 -111 63 -117 33 -11 84 -45 98 -66 14 -19 13 -26 -2
-61 -10 -21 -21 -39 -24 -39 -10 0 -95 91 -126 136 -60 86 -117 155 -122 150
-4 -3 1 -14 10 -24 10 -10 17 -22 17 -26 0 -4 25 -40 55 -81 30 -40 55 -77 55
-82 0 -5 13 -23 29 -41 17 -17 26 -32 22 -32 -18 0 -99 71 -156 136 -33 37
-72 82 -87 99 -110 126 -208 255 -208 273 0 6 -3 12 -7 14 -15 6 -153 220
-153 236 0 3 -6 13 -14 21 -22 26 -126 229 -147 287 -10 30 -28 79 -39 111
-26 74 -26 117 2 143 12 11 27 20 34 20 6 0 26 -37 44 -83 18 -45 50 -119 71
-165 22 -45 39 -86 39 -91 0 -5 3 -11 8 -13 4 -1 27 -43 51 -93 67 -139 103
-208 121 -235 10 -14 26 -39 36 -57 52 -88 107 -173 111 -170 6 7 -18 57 -49
104 -15 23 -28 45 -28 49 0 4 -6 15 -14 23 -26 30 -187 345 -221 431 -9 25
-21 52 -25 61 -36 71 -102 244 -174 460 -107 319 -118 392 -91 626 19 177 35
217 84 221 31 3 40 -3 97 -63 66 -69 108 -136 139 -217 10 -27 21 -48 24 -48
4 0 13 -16 20 -35 7 -19 17 -35 22 -35 12 0 12 1 -6 43 -19 46 -12 64 31 71
45 9 88 52 127 129 29 56 32 70 30 139 -1 47 -8 89 -18 108 -21 40 -92 111
-134 133 -33 17 -33 19 -29 69 4 37 12 57 27 69 11 9 21 25 21 34 0 10 32 58
70 107 65 81 71 93 77 148 5 54 3 63 -21 94 -25 34 -112 86 -142 86 -31 0 -26
31 11 71 77 85 103 204 71 323 l-17 63 31 79 c57 143 75 178 105 219 16 23 50
69 75 104 115 162 321 373 615 630 27 24 79 69 115 101 136 120 360 293 369
285 3 -4 -50 -61 -119 -128 -153 -149 -478 -488 -552 -577 -332 -398 -418
-546 -418 -723 0 -96 -19 -171 -81 -313 -41 -97 -48 -134 -25 -153 11 -9 14
-3 19 34 7 49 34 98 48 89 5 -3 9 -20 9 -38 0 -18 7 -41 16 -52 14 -18 15 -14
10 48 -3 45 0 84 10 120 34 116 277 548 415 738 22 30 64 91 94 135 30 44 69
99 87 122 18 22 58 74 89 115 31 40 92 114 135 163 43 50 104 120 135 155 80
91 312 325 384 386 33 28 98 84 145 124 165 141 295 215 306 174z m-356 -83
c0 -6 -37 -32 -82 -60 -133 -79 -184 -111 -322 -202 -72 -47 -159 -103 -194
-125 -82 -51 -268 -180 -308 -213 -17 -14 -55 -44 -84 -66 -29 -22 -57 -45
-64 -50 -42 -38 -98 -76 -103 -71 -13 12 197 208 377 351 143 115 463 325 494
325 4 0 38 18 77 40 39 22 98 48 132 59 73 23 77 24 77 12z m1320 -81 c28 -28
26 -75 -5 -106 -55 -55 -164 -77 -218 -43 -80 48 -76 1 5 -73 62 -56 62 -57
44 -77 -11 -12 -23 -21 -28 -21 -5 0 -28 -8 -51 -18 -103 -45 -188 -75 -194
-68 -10 10 12 83 46 159 32 70 128 181 188 218 79 49 179 63 213 29z m-1229
-119 c-50 -70 -12 -94 102 -65 115 29 253 18 330 -25 l28 -16 4 -147 4 -147
-32 -48 c-18 -26 -41 -49 -52 -51 -15 -2 -54 31 -138 116 -114 116 -128 134
-107 147 19 12 150 -67 195 -117 63 -70 74 -62 77 52 4 185 8 165 -37 165 -22
1 -64 9 -94 19 -64 22 -168 18 -219 -8 -36 -19 -56 -13 -104 32 -36 34 -35 57
4 93 43 39 67 39 39 0z m4247 -118 c22 -82 44 -166 47 -188 3 -22 15 -83 25
-135 36 -185 51 -307 59 -475 11 -254 -11 -582 -40 -601 -5 -3 -9 16 -9 43 0
210 -24 742 -40 883 -16 144 -39 301 -55 380 -25 122 -42 240 -35 240 4 0 25
-66 48 -147z m-4202 81 c-5 -14 -9 -15 -19 -5 -9 9 -9 14 3 21 18 11 24 6 16
-16z m-2232 -71 c-23 -59 -37 -83 -46 -83 -17 0 -7 40 17 68 14 17 25 35 25
41 0 6 4 11 9 11 6 0 3 -17 -5 -37z m4256 14 c0 -25 -32 -62 -43 -50 -12 11
-8 36 10 55 22 24 33 23 33 -5z m180 -51 c0 -30 -4 -57 -9 -60 -10 -7 -81 21
-81 31 0 10 72 83 82 83 4 0 8 -24 8 -54z m1727 12 c-3 -7 -5 -2 -5 12 0 14 2
19 5 13 2 -7 2 -19 0 -25z m-4497 8 c0 -3 -55 -51 -122 -108 -185 -154 -332
-281 -438 -376 -194 -175 -434 -432 -507 -544 -19 -29 -50 -73 -68 -98 -18
-25 -51 -93 -74 -151 -23 -58 -47 -113 -54 -122 -12 -17 -23 -16 -155 19 -24
7 -37 -14 244 382 36 51 93 123 127 161 34 37 92 102 130 144 37 42 102 104
145 138 42 35 107 90 144 123 36 34 103 88 147 121 190 140 267 195 290 205
13 6 43 23 65 38 23 16 48 31 56 35 8 4 26 14 40 22 28 16 30 17 30 11z m2632
-28 c-15 -15 -26 -4 -18 18 5 13 9 15 18 6 9 -9 9 -15 0 -24z m-4232 -10 c-1
-35 -100 -268 -116 -271 -5 -1 -10 21 -12 50 -3 44 3 64 39 135 60 120 89 149
89 86z m2180 -28 c-20 -12 -33 -1 -19 16 9 11 15 12 23 4 8 -8 7 -13 -4 -20z
m3300 6 c0 -13 -20 -26 -41 -26 -16 0 -9 28 9 33 29 8 32 7 32 -7z m167 -68
c31 -40 77 -95 101 -123 39 -46 76 -103 220 -340 46 -77 175 -364 185 -415 3
-14 19 -74 35 -135 94 -348 114 -784 51 -1137 -26 -150 -108 -399 -193 -591
-84 -189 -254 -448 -400 -610 -59 -64 -113 -117 -121 -117 -31 0 -13 36 53
105 110 116 151 169 264 341 83 126 121 197 169 311 178 425 229 692 214 1118
-5 144 -14 227 -35 345 -35 189 -96 401 -142 495 -18 39 -39 88 -46 111 -6 22
-35 78 -63 125 -29 46 -73 120 -100 165 -58 98 -74 114 -92 91 -10 -14 -18
-15 -52 -6 -21 6 -68 9 -102 7 -66 -4 -65 -4 -330 -145 -40 -21 -73 -42 -73
-46 0 -5 19 -32 43 -60 36 -43 182 -275 196 -312 2 -5 21 -46 43 -89 107 -218
160 -471 160 -766 0 -169 -3 -212 -36 -402 -30 -180 -136 -432 -268 -639 -58
-92 -193 -257 -237 -289 -21 -15 -24 -22 -15 -36 14 -24 34 -29 34 -9 0 20
108 135 126 135 8 0 60 -28 116 -62 57 -34 128 -72 158 -85 65 -27 150 -30
203 -8 44 18 47 18 47 3 0 -7 -16 -23 -36 -36 -28 -19 -33 -26 -24 -37 15 -18
10 -27 -90 -136 -102 -112 -139 -149 -151 -149 -13 0 2 -33 29 -62 14 -16 33
-28 42 -28 9 0 37 24 61 53 24 28 48 55 55 59 30 19 161 188 247 319 85 129
137 227 217 404 49 109 116 300 144 415 30 118 47 163 53 137 3 -11 11 -16 19
-13 9 3 14 -1 14 -12 -1 -155 -189 -681 -298 -831 -18 -24 -32 -48 -32 -53 0
-6 -22 -42 -49 -81 -26 -40 -65 -97 -84 -127 -75 -114 -320 -358 -361 -360 -4
0 -23 -13 -42 -29 -18 -16 -78 -57 -134 -92 l-102 -62 6 -46 c3 -25 8 -67 12
-93 10 -69 -1 -78 -203 -185 l-106 -56 -88 5 c-70 4 -101 12 -153 36 -36 17
-66 27 -66 21 0 -5 11 -14 25 -19 14 -5 25 -14 25 -20 0 -18 -53 15 -99 61
-28 28 -38 45 -30 48 7 2 15 -1 17 -7 2 -7 8 -12 14 -12 6 0 6 6 -2 15 -19 23
-3 47 63 95 38 28 78 70 105 110 24 36 53 69 63 74 13 6 39 3 82 -10 43 -13
91 -19 157 -19 86 1 100 3 155 32 57 29 149 114 173 160 14 26 7 50 -18 58 -9
3 -57 -4 -106 -16 -91 -22 -248 -34 -238 -18 3 5 -6 9 -20 9 -14 0 -28 5 -31
11 -4 5 -19 9 -33 7 l-27 -3 -7 145 c-4 80 -3 161 2 180 10 36 63 102 90 112
12 4 13 10 4 24 -13 23 -34 30 -34 12 0 -18 -44 -61 -53 -51 -12 11 -8 34 8
50 22 21 17 23 -39 12 -27 -5 -51 -7 -53 -5 -6 5 18 26 76 66 28 19 51 39 51
44 0 26 -77 -10 -173 -79 -59 -43 -110 -75 -114 -72 -3 4 39 82 94 174 55 92
139 236 188 318 48 83 115 197 150 255 34 58 88 150 120 205 32 55 86 147 120
205 79 133 89 154 104 214 18 74 -2 124 -166 413 -179 316 -300 530 -340 603
-55 100 -224 394 -249 432 -13 21 -24 40 -24 43 0 15 32 0 95 -45 188 -135
199 -141 250 -138 39 2 52 8 68 31 12 15 26 27 33 27 6 0 14 11 18 23 5 22
354 367 379 376 7 2 22 15 34 28 12 12 27 23 32 23 6 0 36 -33 68 -72z m-3983
24 c-43 -41 -104 -110 -149 -167 -22 -27 -60 -73 -85 -101 -68 -76 -131 -151
-173 -208 -22 -28 -51 -64 -66 -81 -96 -110 -395 -567 -493 -755 -74 -140 -78
-142 -78 -39 0 122 34 210 146 375 48 71 104 147 123 170 20 22 84 99 142 170
117 142 645 681 656 670 4 -3 -6 -19 -23 -34z m507 -108 c73 -75 151 -152 172
-172 24 -23 37 -44 37 -61 0 -28 -55 -91 -79 -91 -8 0 -68 31 -132 70 -157 94
-201 110 -299 110 -109 0 -109 -1 -15 106 112 127 158 174 169 174 7 0 73 -61
147 -136z m3232 73 c-15 -18 -98 -102 -184 -188 -143 -145 -190 -181 -207
-164 -7 7 92 103 242 235 54 47 111 102 128 123 16 20 34 35 39 31 5 -3 -3
-20 -18 -37z m-1386 9 c83 -14 161 -30 172 -35 17 -10 19 -18 14 -64 -3 -28
-10 -58 -16 -64 -11 -14 -512 -19 -735 -6 -134 7 -140 10 -123 71 6 20 6 32 0
32 -5 0 -9 5 -9 10 0 17 43 28 167 45 65 8 136 19 158 24 75 16 218 11 372
-13z m3784 -32 c33 -54 61 -135 63 -182 0 -23 -2 -42 -5 -42 -11 0 -19 29 -13
44 5 14 -66 169 -87 191 -5 5 -9 18 -9 28 0 16 3 17 15 7 8 -7 24 -28 36 -46z
m-400 -106 c16 -32 29 -70 28 -85 -1 -22 -12 -5 -49 72 -27 55 -49 105 -49
110 -1 18 41 -39 70 -97z m-7673 39 c-9 -18 -24 -50 -34 -72 -10 -22 -41 -91
-71 -154 -29 -62 -53 -118 -53 -124 0 -38 -119 -237 -142 -237 -11 0 -10 37 2
58 5 9 24 49 43 87 49 101 133 260 161 303 12 20 40 70 61 110 20 40 40 70 43
67 3 -3 -1 -20 -10 -38z m57 -7 c-8 -16 -15 -34 -15 -39 0 -6 -20 -54 -45
-107 -25 -52 -45 -99 -45 -104 0 -5 -4 -11 -9 -14 -12 -8 3 55 22 90 9 16 30
63 48 104 32 72 47 100 55 100 3 0 -2 -13 -11 -30z m3433 -21 c-5 -35 -28 -36
-28 -1 0 16 3 32 7 35 11 12 25 -9 21 -34z m-63 -5 c0 -27 -3 -29 -44 -32 -56
-4 -98 5 -84 19 13 13 106 49 118 45 6 -1 10 -16 10 -32z m1095 1 c0 -19 -4
-35 -10 -35 -5 0 -10 16 -10 35 0 19 5 35 10 35 6 0 10 -16 10 -35z m234 -6
c34 -17 65 -34 69 -39 8 -7 -154 -3 -180 5 -14 5 -18 57 -6 69 11 10 48 -1
117 -35z m2726 -45 c0 -9 -6 -14 -12 -12 -16 5 -41 76 -32 89 7 12 44 -53 44
-77z m-6350 39 c-18 -21 -85 -90 -149 -153 -142 -141 -194 -196 -302 -326
-201 -241 -285 -353 -432 -571 -34 -51 -66 -92 -72 -90 -5 2 -9 35 -9 73 0 60
4 77 34 131 34 60 196 291 226 320 8 8 28 36 46 61 46 68 98 132 133 163 57
51 90 82 159 148 61 58 367 278 390 280 4 1 -7 -16 -24 -36z m-1017 -50 c4
-38 12 -157 18 -265 11 -195 11 -197 -11 -227 -12 -17 -25 -31 -30 -31 -19 0
-31 521 -13 563 20 43 30 32 36 -40z m2502 7 c3 -5 2 -10 -4 -10 -5 0 -13 5
-16 10 -3 6 -2 10 4 10 5 0 13 -4 16 -10z m235 -64 c0 -15 -29 -30 -39 -20 -3
3 3 12 13 20 24 17 26 17 26 0z m2440 -4 c0 -18 -32 -52 -49 -52 -24 0 -45 25
-37 45 6 16 86 22 86 7z m-2595 -12 c3 -5 1 -10 -4 -10 -6 0 -11 5 -11 10 0 6
2 10 4 10 3 0 8 -4 11 -10z m-838 -27 c-7 -16 -33 -60 -60 -100 -105 -160
-257 -562 -301 -799 -33 -172 -50 -429 -42 -603 7 -131 6 -134 -12 -118 -10 9
-26 17 -35 17 -11 0 -17 12 -21 43 -28 229 7 622 75 852 35 121 110 316 160
420 44 92 70 128 190 268 46 53 64 61 46 20z m6301 -11 c66 -139 134 -312 151
-382 64 -263 -6 -155 -90 139 -16 57 -36 116 -44 130 -14 26 -45 118 -45 133
0 17 16 7 28 -20z m-8117 -238 c10 -273 12 -278 76 -252 56 23 256 88 271 88
21 0 13 -28 -17 -62 -15 -18 -41 -53 -56 -78 -49 -80 -99 -141 -127 -156 -17
-9 -28 -10 -28 -4 0 5 -7 10 -15 10 -7 0 -18 6 -22 13 -20 32 -173 141 -173
123 0 -3 -12 6 -27 21 -33 30 -71 46 -91 38 -23 -9 -10 58 27 136 16 36 44
103 61 148 49 133 96 228 107 217 3 -2 9 -111 14 -242z m2188 196 c57 -8 102
-20 142 -41 116 -58 126 -92 50 -172 -67 -72 -94 -118 -131 -227 -18 -52 -39
-107 -46 -122 -15 -29 -46 -44 -66 -32 -7 4 -2 -5 11 -19 l24 -27 -23 -82
c-64 -231 -90 -412 -90 -621 0 -153 28 -379 60 -487 10 -36 22 -75 25 -86 8
-30 -5 -41 -146 -119 -143 -80 -206 -138 -239 -219 -12 -31 -28 -56 -34 -56
-14 0 -52 81 -71 150 -7 25 -25 86 -40 135 -27 90 -41 159 -71 355 -20 131
-23 536 -5 655 35 221 88 415 168 609 32 76 49 91 59 52 3 -14 13 -31 22 -38
14 -11 15 -10 8 7 -22 52 -18 185 3 145 5 -8 12 -36 15 -61 8 -55 53 -127 104
-167 20 -16 69 -46 107 -66 74 -39 70 -35 -36 43 -55 41 -71 61 -103 124 -35
68 -38 81 -34 136 4 53 11 70 54 133 73 109 105 120 283 98z m3763 -10 c48
-14 88 -54 137 -139 46 -78 59 -144 41 -211 -21 -81 -184 -210 -264 -210 -20
0 -38 17 -87 81 -34 45 -84 106 -113 136 -63 68 -136 171 -136 193 0 36 87 89
222 135 78 26 141 31 200 15z m-3274 -25 c2 -13 -23 -47 -73 -100 -71 -76
-155 -191 -205 -280 -40 -70 -127 -249 -134 -275 -4 -14 -11 -34 -16 -45 -4
-11 -20 -65 -35 -120 -14 -55 -35 -126 -46 -158 -10 -31 -19 -71 -19 -87 0
-21 -5 -30 -16 -30 -14 0 -15 12 -9 98 12 168 57 329 135 484 60 119 181 325
207 353 10 11 52 57 92 103 55 63 78 82 95 80 12 -2 22 -11 24 -23z m-2803
-47 c-15 -47 -102 -258 -110 -266 -3 -3 -8 -3 -11 0 -3 3 20 65 50 136 31 72
56 135 56 139 0 8 20 33 26 33 1 0 -4 -19 -11 -42z m4587 1 c48 -7 88 -15 88
-19 0 -9 -61 -20 -111 -20 -79 0 -285 -75 -319 -115 -12 -15 -8 -16 48 -9 34
3 62 3 62 -2 0 -5 -21 -22 -46 -39 -25 -16 -60 -49 -79 -71 -34 -41 -35 -41
-77 -32 -55 13 -116 -3 -152 -39 -35 -35 -115 -43 -123 -13 -3 11 -9 20 -13
20 -10 0 -62 -41 -77 -60 -6 -8 -24 -15 -39 -15 -24 0 -29 -6 -45 -54 -11 -30
-17 -56 -15 -58 2 -2 32 16 67 39 57 38 71 43 134 46 50 3 76 9 90 22 38 35
105 49 163 34 29 -8 28 -24 -5 -49 -30 -24 -24 -45 12 -45 39 0 37 -15 -5 -49
-22 -18 -47 -46 -56 -63 -18 -34 -14 -41 42 -74 23 -13 12 -44 -16 -44 -32 0
-34 -26 -6 -62 43 -57 66 -119 66 -180 0 -63 -11 -73 -34 -30 -8 15 -23 35
-34 45 -19 18 -20 17 -24 -76 -3 -81 -8 -103 -36 -159 -37 -76 -123 -173 -129
-146 -2 9 2 29 10 45 39 75 45 227 11 269 -14 18 -15 18 -30 -3 -23 -33 -42
-28 -50 12 -9 52 -24 60 -91 46 -43 -8 -83 -8 -163 1 -95 10 -117 10 -196 -7
-161 -33 -222 -76 -238 -167 -4 -21 -10 -39 -15 -42 -12 -8 -104 22 -113 37
-4 6 -8 26 -8 43 0 35 13 44 61 44 22 0 30 6 35 25 4 18 13 25 31 25 13 0 34
11 46 23 12 13 34 27 49 30 15 4 30 16 33 27 4 13 15 20 33 20 32 0 46 9 55
33 3 9 15 17 26 17 25 0 37 18 22 33 -9 9 -16 9 -30 0 -10 -7 -27 -9 -38 -7
-11 3 -26 -3 -37 -15 -11 -12 -23 -21 -28 -21 -16 0 -7 51 13 71 25 25 55 23
169 -10 41 -12 106 -28 143 -36 156 -34 260 34 317 208 17 55 5 57 -20 4 -45
-95 -132 -169 -217 -183 -50 -8 -130 10 -197 43 -60 30 -153 41 -196 23 -46
-19 -70 -56 -70 -106 0 -60 -8 -74 -40 -74 -22 0 -29 -5 -32 -22 -3 -19 -9
-23 -39 -21 -30 2 -36 -2 -46 -27 -8 -22 -18 -29 -44 -32 -29 -3 -35 -8 -49
-50 -9 -26 -19 -50 -22 -54 -4 -3 -16 15 -27 41 -11 26 -31 59 -45 75 -21 26
-23 33 -14 80 5 29 7 59 4 67 -17 43 39 71 105 53 33 -9 44 -9 57 4 10 8 31
18 47 22 17 4 43 18 58 31 16 12 33 23 38 23 5 0 28 18 52 39 23 22 61 44 84
50 49 13 57 28 32 60 -19 23 -25 74 -13 105 3 9 17 16 29 16 46 0 81 22 151
96 45 46 80 74 93 74 12 0 21 -4 21 -9 0 -19 33 -20 70 -1 21 11 90 52 152 91
177 113 312 165 493 193 116 18 131 18 237 5z m1928 -123 c0 -3 -4 -8 -10 -11
-5 -3 -10 -1 -10 4 0 6 5 11 10 11 6 0 10 -2 10 -4z m-5957 -74 c-20 -26 -89
-55 -228 -94 -38 -10 -78 -22 -87 -25 -11 -3 -18 0 -18 7 0 18 68 80 88 80 16
0 147 38 222 64 42 15 50 4 23 -32z m5976 -4 c-1 -37 -2 -39 -9 -18 -12 36
-12 60 0 60 6 0 10 -19 9 -42z m-1949 -88 c0 -53 -35 -134 -74 -169 -14 -14
-26 -30 -26 -36 0 -17 85 -97 94 -88 4 5 53 11 109 14 125 7 169 25 207 86 22
34 29 40 34 27 11 -29 -23 -123 -59 -163 -19 -21 -35 -41 -35 -45 0 -3 14 -6
30 -6 17 0 30 -5 30 -10 0 -15 -59 -49 -98 -56 -43 -8 -46 -17 -25 -58 20 -38
123 -123 161 -133 13 -3 57 -3 98 -1 41 3 74 2 74 -1 0 -17 -34 -52 -71 -73
-34 -19 -39 -26 -34 -47 l6 -24 -82 7 c-89 7 -109 0 -109 -39 0 -13 11 -37 25
-53 14 -16 31 -53 38 -81 19 -74 35 -86 112 -85 36 0 65 -2 65 -5 -1 -22 -72
-71 -103 -71 -10 0 -35 9 -57 20 -53 27 -104 26 -124 -2 -47 -67 25 -136 113
-111 20 6 44 14 54 18 13 5 17 2 17 -14 0 -32 -23 -71 -69 -116 -23 -21 -41
-44 -41 -51 0 -17 67 -25 115 -14 45 10 126 52 145 75 7 8 19 15 28 15 11 0
14 -9 10 -43 -11 -91 -78 -176 -179 -225 l-56 -27 -6 -175 c-4 -126 -11 -195
-25 -245 -24 -90 -44 -145 -53 -145 -3 0 -9 42 -12 93 -6 122 -65 287 -101
287 -6 0 -28 -19 -47 -42 -41 -49 -96 -76 -106 -52 -3 7 0 37 7 65 24 99 -14
227 -77 257 -30 14 -36 14 -68 -1 -21 -10 -37 -26 -41 -42 -14 -55 23 -81 62
-44 32 30 45 17 55 -58 9 -62 -2 -157 -22 -195 -50 -97 -201 -145 -342 -108
-55 15 -155 66 -187 95 -33 30 -160 101 -216 120 -98 33 -238 12 -288 -43 -40
-46 -48 6 -13 83 43 92 152 140 300 133 123 -5 208 -50 350 -185 64 -59 144
-103 192 -103 45 0 116 40 143 79 24 36 24 59 1 52 -8 -3 -35 -7 -62 -9 -43
-4 -50 -1 -78 29 -28 30 -37 34 -85 34 -37 0 -60 6 -80 21 -39 29 -39 40 -3
50 44 13 47 30 7 47 -38 16 -92 73 -116 123 -19 41 -27 42 -46 7 -54 -104
-157 -143 -217 -83 -24 23 -30 37 -27 62 4 39 29 48 43 16 6 -13 20 -24 33
-26 18 -3 26 3 35 27 9 24 17 31 39 31 34 0 36 4 53 97 7 43 16 90 20 106 6
22 4 27 -10 27 -24 0 -92 -74 -107 -117 -14 -38 -24 -42 -33 -13 -23 74 74
219 184 274 112 56 247 82 258 50 2 -6 -19 -28 -46 -48 -64 -45 -106 -103
-126 -171 -30 -105 -11 -153 41 -104 l26 24 -7 -72 c-6 -53 -4 -77 5 -88 17
-21 24 -19 65 16 47 42 65 78 65 133 0 73 6 80 46 55 46 -28 86 -22 98 14 14
40 -8 77 -61 102 -46 21 -52 35 -27 56 34 28 46 70 39 132 -4 39 -2 75 7 103
11 38 16 44 39 44 32 0 59 9 59 19 0 7 -66 31 -84 31 -3 0 -6 -9 -6 -20 0 -11
-3 -20 -8 -20 -18 0 -52 32 -52 49 0 23 -37 71 -55 71 -17 0 -24 23 -24 80 0
25 -5 61 -11 80 -14 47 -13 50 10 50 27 0 27 49 0 109 -27 59 -26 65 20 102
46 37 56 60 38 88 -11 18 -10 23 7 35 11 8 41 20 68 25 104 23 162 64 197 138
25 54 40 45 40 -27z m2437 18 c-3 -7 -5 -2 -5 12 0 14 2 19 5 13 2 -7 2 -19 0
-25z m-457 -15 c0 -20 -3 -24 -11 -16 -7 7 -9 19 -6 27 10 24 17 19 17 -11z
m-182 -35 c24 -48 90 -272 116 -388 42 -193 50 -290 50 -565 0 -251 -2 -281
-28 -420 -24 -136 -88 -349 -136 -460 -10 -22 -25 -57 -33 -77 -9 -21 -18 -38
-21 -38 -2 0 -15 24 -29 53 -37 80 -96 139 -204 202 -179 105 -176 103 -170
138 3 18 12 57 21 87 48 165 61 278 61 520 0 246 -12 357 -55 518 -25 90 -25
121 -2 129 9 4 35 18 57 32 22 14 52 31 66 37 14 6 45 24 70 40 24 16 54 33
66 39 40 19 104 107 127 178 9 27 21 20 44 -25z m-103 -19 c-8 -19 -25 -48
-38 -65 -22 -31 -117 -101 -169 -125 -16 -7 -28 -16 -28 -21 0 -4 -9 -8 -19
-8 -11 0 -26 -6 -33 -13 -26 -26 -56 -38 -64 -26 -9 16 25 41 123 89 112 56
157 91 199 155 40 60 54 67 29 14z m305 -10 c0 -11 -4 -17 -10 -14 -5 3 -10
13 -10 21 0 8 5 14 10 14 6 0 10 -9 10 -21z m29 -107 c7 -24 10 -46 7 -49 -3
-3 -1 -14 5 -24 7 -15 6 -19 -5 -19 -8 0 -16 14 -20 38 -3 20 -8 55 -12 77 -8
51 8 36 25 -23z m411 -198 c11 -115 11 -133 -3 -155 -8 -13 -18 -55 -22 -94
-6 -58 -49 -282 -72 -374 -6 -23 -7 -23 -13 -5 -4 10 -11 65 -15 121 -6 81 -4
111 9 150 18 54 76 432 77 503 l1 45 13 -30 c7 -16 19 -89 25 -161z m-7160 99
c0 -7 6 -13 13 -13 8 0 22 -9 32 -20 10 -11 32 -22 50 -26 18 -3 43 -16 56
-28 13 -12 49 -35 79 -52 30 -16 57 -31 60 -34 3 -3 11 -5 19 -5 17 0 32 -46
24 -75 -3 -11 -7 -20 -8 -20 -2 0 -39 22 -82 49 -43 27 -111 68 -152 92 -40
24 -81 49 -90 54 -68 43 -101 66 -101 72 0 4 12 19 26 34 l26 27 24 -21 c13
-11 24 -27 24 -34z m6854 -80 c40 -176 55 -225 72 -237 13 -10 16 -22 11 -47
-14 -87 -47 -115 -47 -40 0 36 -24 177 -54 316 -18 81 -19 98 -8 91 5 -3 17
-40 26 -83z m-5361 -55 c-18 -70 -45 -223 -48 -273 -1 -22 -6 -101 -10 -175
-11 -192 -24 -203 -24 -20 0 145 11 289 25 311 3 5 7 35 9 67 3 58 40 157 54
148 5 -3 2 -29 -6 -58z m5307 -7 c0 -6 -4 -13 -10 -16 -5 -3 -10 1 -10 9 0 9
5 16 10 16 6 0 10 -4 10 -9z m38 -196 c5 -38 10 -79 10 -90 1 -11 4 -52 8 -92
6 -69 0 -132 -13 -119 -4 3 -10 63 -15 134 -4 70 -11 156 -14 192 -8 88 11 68
24 -25z m-6195 8 c61 -94 66 -104 72 -162 4 -43 1 -54 -19 -78 -24 -28 -25
-28 -141 -26 -108 1 -116 0 -110 -17 8 -25 -47 -64 -79 -56 -21 5 -25 14 -31
65 -4 37 -12 62 -21 65 -15 6 -20 112 -6 132 12 17 104 70 145 83 21 7 57 24
80 37 23 13 47 24 54 24 6 0 31 -30 56 -67z m181 -49 c9 -23 7 -36 -3 -30 -12
8 -21 46 -11 46 4 0 11 -7 14 -16z m6424 -49 c-3 -3 -9 2 -12 12 -6 14 -5 15
5 6 7 -7 10 -15 7 -18z m-70 -71 c-5 -6 -6 -24 -3 -40 3 -16 1 -51 -4 -79 -5
-27 -9 -41 -10 -31 0 10 -8 24 -16 30 -13 10 -13 21 2 96 21 112 26 122 33 75
3 -22 2 -45 -2 -51z m-6349 -47 c2 -86 -54 -165 -143 -202 -38 -16 -86 -20
-86 -7 0 4 27 29 60 56 37 29 74 71 94 106 27 46 59 90 72 99 1 1 2 -23 3 -52z
m-567 -110 c-3 -54 -81 -219 -102 -215 -29 6 -23 63 16 140 42 85 74 132 82
123 3 -3 5 -25 4 -48z m3624 -15 c-4 -30 -16 -52 -76 -148 -14 -22 -13 -25 19
-57 28 -29 34 -44 38 -95 5 -53 2 -66 -20 -104 -14 -24 -66 -79 -116 -123
-162 -142 -227 -244 -238 -370 -7 -83 -14 -88 -51 -35 -51 76 -54 185 -6 286
20 43 58 91 141 175 78 81 113 124 113 140 0 22 -1 22 -34 -10 -23 -22 -47
-34 -74 -38 -36 -5 -45 -2 -72 25 -43 43 -39 55 14 47 39 -6 48 -4 70 18 33
33 33 48 0 86 -22 26 -33 31 -70 31 -108 0 -186 -99 -156 -198 17 -54 0 -62
-42 -19 -33 32 -36 40 -36 95 0 51 5 67 33 108 46 69 125 107 222 106 76 0
179 19 225 43 16 8 43 36 61 62 30 44 33 45 46 27 9 -12 12 -32 9 -52z m3243
-78 c-6 -43 -13 -98 -16 -121 -3 -28 -10 -43 -19 -43 -9 0 -14 -12 -14 -34 0
-19 -5 -38 -11 -41 -6 -4 -8 -13 -5 -21 3 -7 1 -16 -4 -19 -6 -4 -10 -22 -10
-41 0 -19 -4 -42 -9 -52 -5 -9 -15 -44 -22 -77 -7 -33 -28 -103 -46 -155 -19
-52 -40 -113 -48 -135 -24 -67 -176 -335 -190 -335 -12 0 21 72 57 127 15 23
28 45 28 48 0 4 15 37 33 73 30 60 60 133 118 287 10 28 19 60 19 71 0 11 4
24 9 30 9 10 31 99 61 254 11 58 27 121 34 140 8 19 17 59 21 89 3 30 9 60 13
65 13 20 13 -29 1 -110z m-133 -21 c-18 -312 -38 -438 -89 -573 -58 -152 -97
-239 -133 -298 -21 -35 -47 -78 -56 -95 -29 -52 -22 -25 47 174 87 256 118
406 134 649 7 107 12 133 36 180 59 117 69 110 61 -37z m-6378 81 c-2 -9 -36
-35 -76 -58 -96 -53 -94 -69 10 -76 122 -8 121 -33 -2 -49 -41 -5 -120 -24
-175 -41 -129 -41 -136 -41 -153 -7 -12 25 -12 35 2 71 9 23 31 67 49 97 l32
54 102 3 c56 1 119 6 140 11 60 14 75 13 71 -5z m-498 -50 c0 -8 -8 -30 -19
-49 -14 -27 -20 -32 -25 -19 -8 20 -8 79 0 86 10 10 44 -4 44 -18z m3210 -47
c0 -7 -16 -28 -35 -47 -85 -83 -85 -210 1 -342 25 -37 13 -43 -34 -19 -81 41
-142 128 -142 201 1 89 56 165 146 200 59 23 64 24 64 7z m-2410 -153 c0 -39
-14 -72 -39 -91 -40 -31 -41 -1 -3 78 30 62 42 66 42 13z m-750 21 c0 -8 -2
-15 -4 -15 -2 0 -6 7 -10 15 -3 8 -1 15 4 15 6 0 10 -7 10 -15z m494 -77 c-14
-25 -48 -58 -60 -58 -6 0 -17 -7 -24 -15 -7 -8 -17 -15 -23 -15 -15 0 41 58
78 81 35 22 38 23 29 7z m963 -9 c1 -8 7 -126 13 -264 6 -137 18 -283 26 -323
16 -75 15 -126 -1 -87 -5 11 -11 22 -15 25 -3 3 -20 28 -37 55 -30 49 -31 54
-37 205 -4 85 -9 203 -12 262 -5 101 -4 107 17 127 25 23 43 23 46 0z m827
-166 c3 -16 8 -38 12 -50 4 -16 2 -23 -8 -23 -18 0 -38 41 -38 75 0 34 26 32
34 -2z m36 -133 c0 -16 -4 -30 -10 -30 -5 0 -10 14 -10 30 0 17 5 30 10 30 6
0 10 -13 10 -30z m-1786 -136 c21 -8 21 -40 0 -48 -30 -12 -54 -6 -54 12 0 18
18 42 31 42 4 0 14 -3 23 -6z m202 -215 c12 -70 -74 -198 -143 -215 -21 -6
-31 -2 -50 20 -28 33 -23 46 20 46 18 0 39 6 48 13 26 19 99 145 99 169 0 33
20 8 26 -33z m7678 -39 c-16 -74 -90 -306 -104 -325 -4 -5 -19 -42 -33 -81
-25 -70 -130 -285 -203 -414 -104 -184 -256 -384 -284 -373 -8 3 -25 5 -37 4
-37 -2 -28 31 32 116 30 43 81 118 113 166 31 49 71 109 88 135 134 198 333
587 424 826 18 48 20 24 4 -54z m-6834 19 c0 -6 17 -47 39 -92 21 -45 52 -112
70 -148 35 -75 38 -97 15 -106 -23 -9 -32 5 -79 121 -55 133 -83 258 -55 241
6 -3 10 -11 10 -16z m300 -59 c0 -64 -12 -78 -28 -32 -7 20 -6 37 4 60 7 18
16 32 19 32 3 0 5 -27 5 -60z m4617 -192 c-3 -8 -6 -5 -6 6 -1 11 2 17 5 13 3
-3 4 -12 1 -19z m-4759 -183 c3 -46 2 -49 -13 -34 -9 8 -18 32 -22 53 -5 34
-4 38 13 34 15 -2 20 -13 22 -53z m4665 23 c7 -19 -9 -44 -90 -145 -70 -87
-132 -147 -142 -138 -2 3 5 16 15 31 11 15 24 34 29 43 95 152 147 221 164
221 11 0 21 -6 24 -12z m-5173 -70 c0 -4 -4 -8 -9 -8 -5 0 -13 -10 -17 -22
l-7 -23 -9 25 c-6 16 -5 32 4 48 11 22 13 22 25 6 7 -10 13 -21 13 -26z m3727
-100 c-23 -37 -45 -59 -68 -67 -19 -7 -82 -33 -141 -57 -59 -24 -114 -44 -122
-44 -8 0 -18 -4 -21 -10 -3 -5 -18 -10 -33 -10 l-27 -1 25 -14 c32 -18 50 -18
69 -1 9 8 59 31 111 51 52 20 105 40 118 46 50 20 52 9 21 -83 -33 -97 -54
-132 -120 -203 -68 -72 -147 -118 -242 -137 -75 -16 -93 -6 -89 48 7 83 49
120 149 130 52 6 96 -1 146 -21 24 -10 22 16 -4 49 -15 19 -25 24 -32 17 -7
-7 -24 2 -54 26 -24 20 -58 43 -76 52 -18 9 -32 24 -32 34 0 10 -6 22 -14 26
-23 15 -8 32 44 50 95 33 310 121 365 149 30 15 57 27 58 26 2 -1 -12 -27 -31
-56z m-479 30 c6 -6 12 -21 12 -33 0 -12 -6 -27 -12 -32 -30 -24 -298 -63
-428 -63 -123 0 -365 36 -411 61 -23 12 -26 64 -4 77 22 12 827 2 843 -10z
m302 -9 c0 -11 -83 -49 -106 -49 -9 0 -14 11 -14 29 0 25 4 30 28 33 40 5 92
-3 92 -13z m-232 -40 c-2 -19 -7 -33 -13 -32 -12 3 -19 49 -10 71 10 26 27 -2
23 -39z m-3318 20 c7 -11 10 -23 7 -25 -5 -5 4 -50 17 -91 5 -14 3 -23 -3 -23
-6 0 -11 8 -11 17 0 9 -5 33 -11 52 -6 20 -14 48 -19 64 -10 32 4 36 20 6z
m60 -69 c0 -5 -4 -10 -10 -10 -5 0 -10 5 -10 10 0 6 5 10 10 10 6 0 10 -4 10
-10z m2120 -85 c0 -12 -3 -25 -7 -28 -9 -10 -35 44 -28 61 8 21 35 -4 35 -33z
m-116 27 c14 -22 -103 -110 -179 -135 -28 -9 -95 -21 -150 -27 -215 -23 -254
-30 -307 -50 -107 -40 -208 -180 -208 -290 0 -48 -10 -55 -44 -29 -42 33 -35
68 38 189 68 115 210 214 341 238 33 6 107 14 165 17 120 7 203 27 275 66 55
31 62 33 69 21z m-1994 -52 c0 -5 -9 -6 -20 -3 -11 3 -20 9 -20 13 0 5 9 6 20
3 11 -3 20 -9 20 -13z m5020 16 c0 -12 -33 -36 -48 -36 -14 1 -12 5 7 20 21
19 41 26 41 16z m-172 -101 c-49 -83 -33 -70 -308 -242 -91 -57 -169 -103
-175 -103 -5 0 -19 7 -30 15 -19 15 -19 15 0 33 17 16 282 188 380 247 30 19
76 55 144 114 13 12 26 19 29 16 2 -2 -15 -38 -40 -80z m-1938 40 c-19 -20
-45 -38 -57 -41 -13 -4 -23 -14 -23 -24 0 -10 -14 -49 -32 -86 -65 -138 -35
-260 90 -371 116 -104 248 -163 362 -163 53 0 72 -6 138 -42 42 -23 88 -50
101 -60 13 -10 36 -18 50 -18 33 0 65 -22 59 -40 -2 -8 -27 -19 -54 -25 -45
-10 -58 -8 -154 23 -107 35 -173 61 -223 89 -38 20 -87 33 -87 23 0 -5 6 -11
13 -14 6 -3 1 -4 -13 -3 -18 1 -25 8 -25 22 0 13 -7 21 -20 21 -11 1 -26 2
-33 3 -6 1 -11 7 -10 14 2 7 -6 11 -21 9 -17 -1 -22 2 -17 13 5 14 -11 20 -37
16 -13 -2 -57 36 -49 43 3 4 0 5 -8 1 -9 -3 -36 13 -68 41 -52 45 -69 79 -34
68 15 -5 15 -4 1 8 -29 24 -61 104 -74 185 -13 84 49 243 95 243 12 0 24 8 27
18 4 9 15 32 26 50 17 29 24 32 65 32 l46 0 -34 -35z m-600 6 c0 -23 -21 -62
-30 -56 -14 8 -13 38 2 53 14 14 28 16 28 3z m2675 -21 c3 -5 1 -10 -4 -10 -6
0 -11 5 -11 10 0 6 2 10 4 10 3 0 8 -4 11 -10z m-60 -37 c6 -17 7 -17 20 0 10
13 14 15 18 5 6 -17 -10 -48 -25 -48 -6 0 -26 -11 -45 -26 -39 -29 -41 -20
-10 41 24 49 32 54 42 28z m-552 -85 c-12 -14 -19 -15 -30 -7 -19 16 -16 28
10 38 29 11 41 -8 20 -31z m1125 -53 c18 -44 38 -85 45 -93 6 -8 49 -33 94
-55 63 -30 83 -45 83 -60 0 -23 -138 -234 -158 -242 -8 -3 -26 3 -40 14 -100
71 -229 69 -336 -3 -68 -47 -114 -122 -117 -191 -3 -79 -12 -99 -52 -118 -56
-26 -67 -13 -67 79 0 49 7 91 20 128 19 49 83 140 135 191 39 39 159 138 197
162 73 49 40 66 -94 48 -42 -5 -48 -9 -48 -30 0 -17 6 -25 22 -27 39 -6 30
-25 -36 -77 -62 -50 -144 -138 -178 -192 -29 -46 -48 -131 -48 -216 l0 -83
-37 5 c-21 2 -65 7 -97 10 -84 7 -89 20 -57 146 25 97 64 179 104 216 54 51
146 110 200 127 18 6 24 26 8 26 -23 0 -176 -90 -223 -131 -79 -68 -108 -137
-142 -331 -6 -31 -12 -38 -38 -43 -18 -4 -55 -30 -85 -58 -60 -57 -64 -75 -34
-161 24 -68 16 -82 -31 -58 -30 16 -47 17 -108 11 -91 -10 -160 -43 -229 -109
-44 -42 -58 -50 -90 -50 -40 0 -199 -27 -214 -37 -16 -10 7 -22 46 -25 43 -3
44 -22 1 -25 -74 -4 -301 -4 -314 1 -8 3 -28 10 -45 17 -16 6 -57 12 -90 14
-76 3 -126 14 -146 32 -9 8 -20 13 -25 11 -9 -3 -120 27 -162 43 -13 5 -31 9
-41 9 -11 0 -22 7 -25 16 -4 10 -13 13 -27 9 -15 -5 -22 -2 -26 14 -4 15 -13
21 -35 21 -32 0 -58 20 -62 47 -2 9 -14 20 -27 24 -14 3 -41 13 -60 22 -36 17
-67 29 -223 82 -54 19 -103 38 -110 43 -6 5 -27 12 -47 16 -21 4 -50 13 -65
21 -61 29 -196 85 -209 85 -7 0 -28 12 -46 27 -18 15 -40 28 -48 28 -10 0 -17
11 -19 30 -2 17 -11 36 -20 43 -18 14 -82 17 -82 3 0 -5 -14 -15 -31 -23 l-30
-15 133 -68 c73 -37 228 -117 345 -176 200 -103 351 -172 488 -224 33 -12 107
-41 165 -64 58 -22 112 -41 121 -41 23 0 79 -30 79 -42 0 -6 -12 -7 -31 -3
-17 4 -54 11 -82 15 -98 16 -459 131 -539 171 -20 10 -59 26 -85 35 -66 22
-322 148 -407 201 -135 83 -215 146 -216 170 0 32 -27 71 -87 128 -34 31 -49
52 -41 56 13 8 -4 55 -50 140 l-29 54 -73 -2 c-39 -1 -78 -7 -86 -13 -14 -12
-34 -6 -34 10 0 25 194 81 221 64 12 -7 59 -114 59 -134 0 -24 -5 -20 164
-146 60 -45 177 -72 341 -79 72 -4 117 -10 132 -20 12 -8 29 -12 37 -9 14 5
14 9 -1 37 -19 38 -53 154 -53 183 0 12 7 24 15 28 8 3 15 2 15 -3 0 -23 201
-201 227 -201 4 0 24 -12 45 -26 26 -19 37 -32 33 -44 -7 -22 25 -36 101 -45
32 -3 122 -21 199 -39 77 -18 165 -34 195 -35 366 -12 616 -22 634 -26 21 -4
340 12 392 21 44 6 120 59 132 92 5 15 20 54 33 86 l23 60 13 -30 c15 -36 16
-87 2 -137 -8 -29 -24 -48 -69 -81 -50 -37 -72 -46 -145 -60 -69 -12 -91 -21
-106 -40 -28 -36 -156 -102 -224 -116 -77 -16 -89 -19 -83 -26 3 -3 47 2 98
11 71 12 111 26 174 60 57 31 113 52 180 67 78 17 100 26 106 42 4 12 25 37
45 56 20 19 41 45 46 58 13 33 27 27 35 -15 8 -43 -9 -82 -44 -99 -19 -9 -20
-13 -8 -17 18 -7 112 30 103 40 -4 3 -2 14 3 24 7 13 4 36 -11 82 l-21 64 21
44 c17 34 21 60 20 125 -2 59 2 90 13 106 13 20 76 55 183 104 32 14 162 50
290 79 81 19 89 21 113 23 7 1 12 10 10 19 -2 10 10 25 30 37 53 34 183 120
232 154 25 17 49 30 55 28 5 -1 25 -38 43 -81z m-167 64 c-13 -5 -37 -21 -54
-35 -44 -37 -147 -87 -147 -72 0 7 4 18 8 24 9 13 71 44 89 44 7 0 13 9 13 21
0 15 5 19 19 14 10 -3 29 -1 42 4 13 5 31 10 39 10 8 0 4 -5 -9 -10z m-555
-86 c-20 -104 -19 -120 4 -143 28 -28 22 -42 -26 -59 -36 -13 -169 -71 -204
-90 -33 -17 -59 -72 -65 -139 -12 -125 -27 -136 -44 -34 -6 37 -17 101 -25
142 -24 121 -23 122 39 163 106 71 161 105 216 136 31 17 62 38 69 46 7 8 19
15 28 15 12 0 13 -8 8 -37z m-2744 -122 c-3 -34 2 -72 16 -118 20 -63 41 -100
115 -203 31 -42 29 -60 -6 -60 -25 0 -146 105 -134 116 4 4 23 -8 42 -26 49
-48 55 -30 7 22 -112 123 -137 233 -70 305 29 31 36 22 30 -36z m2785 27 c-3
-8 -6 -5 -6 6 -1 11 2 17 5 13 3 -3 4 -12 1 -19z m1569 -175 c-11 -11 -19 6
-11 24 8 17 8 17 12 0 3 -10 2 -21 -1 -24z m-6243 -50 c4 -16 16 -39 27 -53
11 -14 30 -39 43 -57 64 -91 113 -146 202 -223 115 -100 372 -393 350 -398
-39 -9 -303 207 -507 414 -164 167 -208 216 -208 233 1 19 66 111 79 111 5 0
11 -12 14 -27z m1280 -57 c29 -46 34 -66 16 -66 -20 0 -71 60 -65 76 3 9 6 20
6 25 0 20 16 6 43 -35z m275 -46 c7 -11 11 -20 9 -20 -2 0 -12 9 -22 20 -10
11 -14 20 -9 20 5 0 15 -9 22 -20z m3996 -17 c-23 -17 -67 -17 -61 0 2 6 12
12 22 12 10 0 20 6 23 13 3 10 7 10 19 0 13 -10 13 -14 -3 -25z m-1387 -101
c-5 -71 -25 -100 -90 -133 -31 -16 -73 -22 -214 -30 -96 -5 -178 -8 -180 -5
-11 10 12 28 64 52 31 13 61 24 68 24 16 0 190 91 269 141 78 49 91 42 83 -49z
m903 70 c0 -4 -4 -12 -9 -17 -18 -20 -51 -127 -51 -165 0 -32 -4 -40 -18 -40
-27 0 -42 20 -42 55 0 32 53 155 73 167 16 10 47 10 47 0z m890 -137 c10 -12
5 -27 -26 -82 -20 -38 -48 -82 -61 -99 -12 -17 -23 -36 -23 -43 0 -7 -7 -26
-16 -43 -12 -24 -18 -28 -25 -17 -5 8 -9 25 -9 38 0 14 -9 34 -20 46 -36 39 3
116 80 155 19 10 44 27 54 39 23 25 30 26 46 6z m-600 -55 c-16 -30 -22 -19
-7 13 6 14 13 22 15 17 2 -5 -2 -19 -8 -30z m-258 -7 c15 -15 28 -32 28 -39 0
-21 -29 -36 -55 -30 -22 6 -25 12 -25 51 0 53 12 57 52 18z m-564 -95 c18 -18
15 -59 -7 -82 -38 -43 -43 -113 -16 -218 10 -39 -8 -35 -45 10 -39 47 -54 102
-47 175 8 93 73 157 115 115z m420 -40 c27 -67 52 -182 42 -199 -10 -15 -133
-7 -172 11 -34 16 -35 24 -3 66 14 18 25 37 25 42 0 6 -17 19 -37 30 -21 10
-38 25 -38 32 0 7 25 21 55 32 30 10 59 23 64 28 22 22 43 9 64 -42z m-355
-290 c26 -35 88 -99 137 -143 50 -44 93 -88 96 -97 5 -18 -30 -73 -52 -82 -7
-3 -49 -6 -93 -7 -88 -2 -102 4 -121 51 -14 35 -35 41 -24 8 5 -13 8 -36 9
-53 0 -27 -6 -32 -80 -68 -44 -22 -97 -48 -118 -59 -37 -19 -37 -19 -63 1 -15
12 -35 21 -45 21 -12 0 -16 5 -13 14 4 10 15 13 40 9 41 -7 45 9 7 26 -19 9
-29 9 -31 2 -5 -16 -42 -13 -42 3 0 8 6 16 13 19 6 2 -6 7 -28 11 -65 12 -95
33 -95 64 0 33 49 140 87 187 65 82 235 80 356 -3 44 -31 67 -39 67 -25 0 3
-13 34 -29 67 -34 69 -47 116 -34 116 5 0 30 -28 56 -62z m-413 32 c0 -5 -4
-10 -10 -10 -5 0 -10 5 -10 10 0 6 5 10 10 10 6 0 10 -4 10 -10z m-42 -29 c12
-7 11 -13 -1 -38 -9 -16 -23 -35 -31 -42 -9 -8 -16 -18 -16 -24 0 -25 -34 -97
-43 -94 -12 4 -45 92 -46 123 -2 47 97 101 137 75z m1112 -67 c0 -12 -41 -52
-90 -84 -19 -14 -41 -32 -48 -42 -7 -10 -31 -27 -53 -38 -21 -11 -39 -24 -39
-29 0 -5 -14 -16 -31 -25 -29 -15 -30 -14 -27 7 2 12 14 27 27 34 14 6 31 23
38 37 8 14 19 26 26 26 21 1 51 34 77 84 14 26 36 59 48 73 l24 26 24 -29 c13
-16 23 -34 24 -40z m-1280 -44 c6 -12 10 -38 8 -58 l-3 -37 -30 31 c-16 16
-38 33 -49 37 -18 7 -18 8 -1 27 23 26 61 26 75 0z m-148 -2 c-9 -9 -15 -9
-24 0 -9 9 -7 12 12 12 19 0 21 -3 12 -12z m-4002 -162 c0 -29 -22 -49 -44
-40 -22 8 -20 23 5 51 25 26 39 22 39 -11z m5090 -5 c0 -40 -89 -116 -106 -90
-5 9 23 56 59 96 21 24 47 21 47 -6z m-888 1 c20 -20 -1 -29 -49 -20 -26 5
-74 11 -106 15 -31 3 -60 10 -63 15 -8 13 205 3 218 -10z m-1817 -332 c3 -5 1
-10 -4 -10 -6 0 -11 5 -11 10 0 6 2 10 4 10 3 0 8 -4 11 -10z m-1978 -32 c53
-43 201 -116 279 -137 23 -6 47 -18 54 -26 7 -8 22 -15 33 -15 11 0 43 -15 71
-34 28 -18 64 -36 79 -40 17 -4 36 -20 48 -40 16 -27 30 -36 82 -50 34 -10 72
-22 84 -27 42 -16 154 -39 191 -39 21 0 64 -9 95 -20 32 -11 83 -24 115 -29
135 -20 365 -63 388 -71 14 -6 30 -8 35 -5 5 3 21 -1 36 -10 27 -15 23 -16
-69 -10 -123 7 -278 30 -391 57 -76 19 -95 20 -133 10 -78 -21 -104 -17 -319
51 -195 63 -244 88 -490 254 -183 124 -255 179 -255 194 0 13 48 3 67 -13z
m1186 -31 c71 -30 74 -80 7 -122 -30 -19 -53 -25 -95 -25 -67 0 -73 -16 -17
-48 64 -35 148 -52 262 -52 151 1 193 30 84 59 -47 12 -69 33 -60 56 7 20 25
19 93 -5 98 -34 161 -90 148 -130 -6 -18 -22 -25 -134 -57 -24 -6 0 -21 61
-37 31 -8 69 -22 85 -31 17 -9 20 -14 8 -10 -11 2 -51 7 -90 10 -38 2 -95 12
-125 20 -30 8 -100 24 -155 36 -130 27 -185 46 -213 76 -12 14 -33 26 -45 28
-52 8 -121 31 -124 42 -3 6 20 23 50 37 69 33 87 54 94 108 3 24 11 46 17 50
18 13 115 9 149 -5z m2334 -124 c3 -9 -99 -82 -237 -168 -19 -12 -71 -45 -114
-74 -75 -49 -161 -80 -178 -63 -13 13 17 38 132 110 63 40 160 104 215 142 86
59 106 68 139 67 22 -1 41 -7 43 -14z m-894 -50 c-24 -9 -13 -31 25 -50 25
-12 38 -26 40 -42 4 -22 2 -23 -35 -17 -43 7 -185 77 -191 94 -2 6 5 12 15 15
24 6 161 7 146 0z m-351 -11 c14 -6 1 -22 -67 -80 -95 -82 -138 -104 -248
-127 -66 -13 -87 -14 -133 -4 -30 7 -53 17 -51 23 6 17 208 115 292 141 44 13
98 31 120 39 44 17 61 18 87 8z m157 -91 c13 -3 33 -18 44 -32 18 -25 18 -28
2 -58 -19 -38 -82 -70 -137 -71 -47 0 -56 14 -18 30 16 7 34 18 41 26 12 15
-8 27 -64 39 -22 4 -28 11 -25 28 5 36 91 57 157 38z m506 -121 c-3 -5 -17
-10 -31 -10 -14 0 -22 4 -19 10 3 6 17 10 31 10 14 0 22 -4 19 -10z m743 -76
c12 -4 22 -10 22 -15 0 -12 -46 -18 -275 -34 -198 -13 -335 -11 -335 5 0 4 66
11 148 15 81 4 188 13 237 20 105 14 171 17 203 9z m112 -14 c0 -5 -16 -10
-35 -10 -19 0 -35 5 -35 10 0 6 16 10 35 10 19 0 35 -4 35 -10z m45 0 c-3 -5
-10 -10 -16 -10 -5 0 -9 5 -9 10 0 6 7 10 16 10 8 0 12 -4 9 -10z m-1406 -46
c25 -4 31 -8 22 -17 -8 -8 -60 -12 -154 -12 -189 -1 -251 5 -255 27 -3 15 13
16 175 12 98 -3 193 -7 212 -10z m174 -11 c-7 -2 -21 -2 -30 0 -10 3 -4 5 12
5 17 0 24 -2 18 -5z m74 1 c-3 -3 -12 -4 -19 -1 -8 3 -5 6 6 6 11 1 17 -2 13
-5z m56 -1 c-7 -2 -19 -2 -25 0 -7 3 -2 5 12 5 14 0 19 -2 13 -5z"/>
<path d="M5318 8713 c7 -3 16 -2 19 1 4 3 -2 6 -13 5 -11 0 -14 -3 -6 -6z"/>
<path d="M1580 4481 c0 -6 9 -15 20 -21 13 -7 20 -7 20 -1 0 6 -9 15 -20 21
-13 7 -20 7 -20 1z"/>
<path d="M1410 4441 c0 -5 8 -17 17 -27 20 -20 32 -1 13 21 -14 17 -30 20 -30
6z"/>
<path d="M1320 4180 c0 -5 5 -10 10 -10 6 0 10 5 10 10 0 6 -4 10 -10 10 -5 0
-10 -4 -10 -10z"/>
<path d="M1081 3240 c0 -14 8 -36 19 -50 24 -31 24 -17 0 35 -16 35 -19 37
-19 15z"/>
<path d="M2470 3211 c0 -5 7 -14 15 -21 8 -7 15 -18 15 -25 0 -7 7 -15 15 -19
24 -9 18 33 -7 55 -25 20 -38 24 -38 10z"/>
<path d="M2430 3140 c0 -16 72 -111 79 -105 2 3 -5 15 -16 28 -11 12 -24 32
-27 44 -8 26 -36 52 -36 33z"/>
<path d="M2400 2911 c0 -5 5 -13 10 -16 6 -3 10 -2 10 4 0 5 -4 13 -10 16 -5
3 -10 2 -10 -4z"/>
<path d="M2446 2825 c4 -8 8 -15 10 -15 2 0 4 7 4 15 0 8 -4 15 -10 15 -5 0
-7 -7 -4 -15z"/>
<path d="M2490 2622 c0 -6 13 -25 30 -43 23 -26 28 -28 24 -12 -7 24 -54 73
-54 55z"/>
<path d="M2700 2510 c0 -5 5 -10 11 -10 5 0 7 5 4 10 -3 6 -8 10 -11 10 -2 0
-4 -4 -4 -10z"/>
<path d="M1291 1691 c-1 -12 66 -111 75 -111 12 0 1 21 -27 51 -16 19 -34 43
-39 54 -5 11 -9 14 -9 6z"/>
<path d="M6005 5650 c4 -13 15 -36 25 -50 88 -131 171 -301 214 -441 14 -47
40 -153 56 -235 26 -132 30 -169 30 -329 0 -222 -21 -358 -86 -575 -50 -163
-214 -467 -304 -560 -20 -21 -62 -68 -94 -103 -48 -55 -54 -66 -42 -77 16 -12
36 -6 36 12 0 10 116 148 146 173 26 23 161 248 210 351 156 326 204 769 125
1134 -49 230 -59 259 -133 405 -75 147 -132 245 -171 295 l-19 25 7 -25z"/>
<path d="M5757 3033 c-3 -10 -6 -56 -7 -103 -1 -47 -3 -98 -3 -114 -1 -16 4
-32 13 -36 16 -8 91 -28 154 -40 49 -10 162 5 193 25 12 8 29 15 38 15 17 0
39 46 31 67 -9 21 -34 15 -38 -9 -4 -32 -42 -36 -62 -7 -12 17 -13 25 -4 30 9
6 8 11 -1 23 -20 24 -34 19 -27 -9 8 -30 7 -30 -68 -4 -82 29 -144 73 -152
107 -14 60 -56 95 -67 55z"/>
<path d="M6180 2895 c19 -19 36 -35 39 -35 3 0 -10 16 -29 35 -19 19 -36 35
-39 35 -3 0 10 -16 29 -35z"/>
<path d="M5594 2423 c-15 -21 -52 -63 -82 -94 -58 -61 -64 -87 -22 -100 235
-70 275 -67 425 26 140 88 139 113 -7 97 -51 -6 -105 -8 -120 -5 -17 3 -28 1
-28 -6 0 -17 -21 -13 -57 12 -19 12 -33 31 -33 42 0 23 -26 65 -40 65 -5 0
-21 -17 -36 -37z"/>
<path d="M4270 6230 c0 -13 40 -13 60 0 11 7 5 10 -22 10 -21 0 -38 -4 -38
-10z"/>
<path d="M4195 6220 c-3 -5 1 -10 9 -10 9 0 16 5 16 10 0 6 -4 10 -9 10 -6 0
-13 -4 -16 -10z"/>
<path d="M4158 6203 c7 -3 16 -2 19 1 4 3 -2 6 -13 5 -11 0 -14 -3 -6 -6z"/>
<path d="M3993 5343 c-3 -10 -23 -36 -45 -59 -34 -36 -37 -42 -24 -53 28 -23
66 -5 86 42 18 41 18 87 -1 87 -6 0 -12 -8 -16 -17z"/>
<path d="M3382 4929 c1 -13 8 -23 13 -21 15 3 12 35 -3 40 -9 3 -13 -3 -10
-19z"/>
<path d="M4825 5259 c-6 -17 -12 -20 -33 -15 -57 14 -57 14 -59 -39 -1 -27 -3
-59 -5 -70 -2 -16 3 -20 27 -20 29 0 30 1 28 48 l-1 47 37 0 c20 0 46 -6 56
-14 17 -12 18 -18 8 -37 -15 -30 -20 -70 -10 -86 5 -7 19 -10 35 -7 19 4 36
-1 56 -17 23 -18 27 -27 22 -53 -4 -20 -1 -39 8 -51 12 -17 17 -18 41 -7 23
11 30 11 36 0 6 -10 11 -10 20 -1 16 16 -18 133 -40 140 -9 3 -25 9 -36 13
-11 5 -29 10 -39 12 -28 4 -30 22 -4 33 35 15 28 39 -12 45 -47 8 -56 15 -86
61 -27 44 -40 48 -49 18z"/>
<path d="M4753 4939 c-13 -5 -23 -13 -23 -19 0 -16 40 -12 47 5 8 21 2 24 -24
14z"/>
<path d="M4820 4610 c0 -27 44 -54 75 -46 21 5 53 42 43 50 -2 2 -29 6 -60 9
-52 5 -58 4 -58 -13z"/>
<path d="M4990 4480 c-14 -4 -44 -8 -67 -9 -24 -1 -43 -6 -43 -12 0 -6 13 -28
30 -49 31 -39 80 -135 80 -157 0 -7 4 -13 9 -13 13 0 23 84 15 135 -5 33 -2
51 10 70 28 43 20 52 -34 35z"/>
<path d="M4746 4112 c-22 -43 -26 -102 -7 -102 3 0 21 16 40 35 19 19 38 35
42 35 18 0 8 37 -14 58 -13 12 -26 22 -30 22 -4 0 -18 -21 -31 -48z"/>
<path d="M5077 4023 c-7 -11 40 -93 52 -93 13 0 34 58 27 75 -3 8 -14 15 -25
15 -11 0 -26 3 -34 6 -8 3 -17 1 -20 -3z"/>
<path d="M2731 4113 c-1 -12 4 -25 9 -28 12 -7 12 2 0 30 -8 19 -9 19 -9 -2z"/>
<path d="M4580 2242 c0 -5 7 -13 16 -16 10 -4 14 -1 12 6 -5 15 -28 23 -28 10z"/>
<path d="M6888 2422 c-10 -2 -18 -8 -18 -13 0 -5 -6 -9 -14 -9 -8 0 -18 -4
-21 -10 -11 -18 32 -11 56 9 26 21 24 30 -3 23z"/>
<path d="M3610 2075 c33 -19 46 -19 30 0 -7 8 -22 15 -34 15 -20 -1 -20 -2 4
-15z"/>
<path d="M5460 1760 c0 -5 17 -10 38 -9 33 1 34 2 12 9 -36 11 -50 11 -50 0z"/>
<path d="M5665 1760 l-50 -7 45 0 c25 -1 56 3 70 7 31 10 8 10 -65 0z"/>
<path d="M4710 1580 c0 -5 5 -10 10 -10 6 0 10 5 10 10 0 6 -4 10 -10 10 -5 0
-10 -4 -10 -10z"/>
<path d="M5368 1433 c7 -3 16 -2 19 1 4 3 -2 6 -13 5 -11 0 -14 -3 -6 -6z"/>
<path d="M3890 2145 c0 -15 18 -40 24 -34 3 3 -1 14 -9 25 -8 10 -14 15 -15 9z"/>
<path d="M6420 1293 c0 -4 5 -15 10 -23 8 -13 10 -13 10 2 0 9 -4 20 -10 23
-5 3 -10 3 -10 -2z"/>
<path d="M7330 8011 c0 -6 5 -13 10 -16 6 -3 10 1 10 9 0 9 -4 16 -10 16 -5 0
-10 -4 -10 -9z"/>
<path d="M7436 7983 c21 -88 74 -212 100 -233 16 -14 17 -13 10 5 -5 11 -19
47 -31 80 -12 33 -28 74 -35 90 -7 17 -15 41 -19 54 -10 37 -34 40 -25 4z"/>
<path d="M7360 7948 c0 -20 91 -198 101 -198 16 0 10 19 -38 116 -42 86 -63
113 -63 82z"/>
<path d="M7677 7560 c21 -34 53 -72 53 -63 0 5 -14 24 -31 43 -17 19 -27 28
-22 20z"/>
<path d="M7016 7535 c4 -8 8 -15 10 -15 2 0 4 7 4 15 0 8 -4 15 -10 15 -5 0
-7 -7 -4 -15z"/>
<path d="M7750 7461 c11 -22 30 -37 30 -24 -1 11 -26 43 -34 43 -4 0 -2 -9 4
-19z"/>
<path d="M7770 7316 c0 -13 41 -56 53 -56 4 0 1 13 -7 29 -16 31 -46 49 -46
27z"/>
<path d="M7865 7291 c14 -29 35 -49 35 -36 0 13 -34 65 -42 65 -5 0 -2 -13 7
-29z"/>
<path d="M7840 7230 c0 -5 5 -10 11 -10 5 0 7 5 4 10 -3 6 -8 10 -11 10 -2 0
-4 -4 -4 -10z"/>
<path d="M7780 7070 c0 -58 72 -150 148 -189 33 -18 38 -7 17 39 -26 57 -59
100 -107 138 -47 37 -58 40 -58 12z"/>
<path d="M8536 5835 c3 -22 10 -44 15 -49 13 -14 10 13 -7 54 l-14 35 6 -40z"/>
<path d="M8487 5770 c-4 -18 -7 -50 -7 -70 0 -27 -8 -48 -26 -69 -44 -53 -74
-43 -184 64 -84 81 -134 104 -179 82 -19 -9 -27 -21 -29 -46 -4 -41 14 -88 39
-102 16 -8 19 -6 19 13 0 36 14 50 46 46 18 -2 34 -12 43 -29 13 -24 13 -33
-2 -85 -12 -41 -15 -68 -9 -88 11 -39 30 -44 34 -10 2 15 13 33 25 41 20 14
24 13 46 -9 15 -15 27 -42 31 -71 5 -35 16 -57 41 -81 50 -51 101 -55 75 -7
-23 44 -6 91 32 91 59 0 136 -93 125 -149 -4 -17 1 -37 12 -54 l18 -27 11 25
c29 64 4 144 -68 220 -57 60 -61 73 -58 187 2 79 -1 110 -13 132 l-16 29 -6
-33z"/>
<path d="M8570 5721 c0 -6 4 -13 10 -16 6 -3 7 1 4 9 -7 18 -14 21 -14 7z"/>
<path d="M8604 5613 c3 -10 8 -31 12 -46 4 -16 15 -45 25 -65 18 -35 19 -35
13 -7 -9 40 -44 135 -50 135 -3 0 -3 -8 0 -17z"/>
<path d="M8661 5438 c-1 -15 4 -30 9 -33 12 -7 12 12 0 40 -8 18 -9 17 -9 -7z"/>
<path d="M8691 5344 c0 -11 3 -14 6 -6 3 7 2 16 -1 19 -3 4 -6 -2 -5 -13z"/>
<path d="M8754 3790 c22 -11 42 -18 45 -15 9 9 -13 23 -49 29 l-35 7 39 -21z"/>
<path d="M7041 3234 c0 -11 3 -14 6 -6 3 7 2 16 -1 19 -3 4 -6 -2 -5 -13z"/>
<path d="M2830 2230 c0 -5 5 -10 11 -10 5 0 7 5 4 10 -3 6 -8 10 -11 10 -2 0
-4 -4 -4 -10z"/>
<path d="M2860 2204 c0 -4 12 -21 28 -38 15 -18 36 -44 47 -59 11 -15 23 -27
27 -27 18 0 6 20 -37 63 -25 26 -45 51 -45 57 0 5 -4 10 -10 10 -5 0 -10 -3
-10 -6z"/>
<path d="M7739 2063 c-13 -16 -12 -17 4 -4 9 7 17 15 17 17 0 8 -8 3 -21 -13z"/>
<path d="M2980 2061 c0 -9 38 -58 87 -111 17 -19 50 -62 72 -95 44 -66 111
-145 111 -132 0 5 -15 30 -32 55 -18 26 -36 51 -40 57 -4 5 -22 28 -40 50 -19
22 -49 60 -68 85 -19 25 -43 54 -52 64 -10 11 -18 23 -18 28 0 4 -4 8 -10 8
-5 0 -10 -4 -10 -9z"/>
<path d="M3350 1836 c0 -13 76 -54 130 -71 14 -4 32 -13 40 -20 16 -15 90 -31
90 -21 0 4 -28 20 -61 36 -39 18 -68 40 -80 59 -17 28 -24 31 -69 31 -36 0
-50 -4 -50 -14z"/>
<path d="M3260 1702 c0 -5 16 -26 35 -48 30 -35 34 -37 35 -17 0 12 -12 34
-27 48 -28 26 -43 31 -43 17z"/>
<path d="M3345 1578 c20 -64 33 -143 28 -173 -5 -32 -9 -35 -59 -45 -61 -13
-80 -30 -33 -30 49 0 109 21 121 43 15 28 4 115 -22 176 -22 50 -49 73 -35 29z"/>
<path d="M4970 1120 c20 -13 33 -13 25 0 -3 6 -14 10 -23 10 -15 0 -15 -2 -2
-10z"/>
<path d="M5138 1063 c7 -3 16 -2 19 1 4 3 -2 6 -13 5 -11 0 -14 -3 -6 -6z"/>
<path d="M2990 995 c0 -8 4 -15 10 -15 5 0 7 7 4 15 -4 8 -8 15 -10 15 -2 0
-4 -7 -4 -15z"/>
<path d="M5798 963 c7 -3 16 -2 19 1 4 3 -2 6 -13 5 -11 0 -14 -3 -6 -6z"/>
<path d="M5877 963 c-9 -2 -15 -9 -12 -14 11 -17 105 -7 105 12 0 9 -61 10
-93 2z"/>
<path d="M6134 690 c0 -52 1 -74 3 -47 2 26 2 68 0 95 -2 26 -3 4 -3 -48z"/>
<path d="M2873 723 c9 -2 23 -2 30 0 6 3 -1 5 -18 5 -16 0 -22 -2 -12 -5z"/>
</g>
</svg>
